<svg xmlns="http://www.w3.org/2000/svg"><symbol id="group-6759" viewBox="0 0 32 32"><path fill="#fff" d="M20.043 16.945l.446-2.878h-2.79V12.2c0-.788.39-1.555 1.639-1.555h1.269v-2.45S19.455 8 18.355 8c-2.298 0-3.8 1.378-3.8 3.874v2.193H12v2.878h2.555v6.957h3.143v-6.957h2.345z"/><rect width="32" height="32" fill="#fff" opacity=".1" rx="6"/></symbol><symbol id="group-1000002315" viewBox="0 0 32 33"><rect width="32" height="32" y=".26" fill="#fff" opacity=".1" rx="6"/><g clip-path="url(#a)"><path fill="#fff" d="M16.004 12.221c-2.271 0-4.103 1.803-4.103 4.04 0 2.235 1.832 4.039 4.103 4.039 2.272 0 4.104-1.804 4.104-4.04 0-2.236-1.832-4.039-4.104-4.039zm0 6.666c-1.468 0-2.668-1.178-2.668-2.627 0-1.448 1.197-2.626 2.668-2.626 1.472 0 2.668 1.178 2.668 2.626 0 1.449-1.2 2.627-2.668 2.627zm5.229-6.831a.948.948 0 0 1-.957.942.947.947 0 0 1-.957-.942.95.95 0 0 1 .957-.942.95.95 0 0 1 .957.942zm2.718.956c-.061-1.262-.354-2.38-1.293-3.301-.936-.921-2.072-1.21-3.354-1.273-1.321-.074-5.282-.074-6.603 0-1.279.06-2.415.348-3.354 1.27-.94.92-1.228 2.038-1.293 3.3-.075 1.301-.075 5.2 0 6.5.061 1.263.354 2.381 1.293 3.302.94.921 2.072 1.21 3.354 1.273 1.321.074 5.282.074 6.603 0 1.282-.06 2.418-.348 3.354-1.273.936-.921 1.228-2.039 1.293-3.301.075-1.3.075-5.196 0-6.497zm-1.707 7.893a2.68 2.68 0 0 1-1.522 1.497c-1.053.412-3.553.317-4.718.317-1.164 0-3.668.091-4.718-.317a2.68 2.68 0 0 1-1.521-1.497c-.418-1.038-.321-3.498-.321-4.645 0-1.146-.093-3.61.321-4.644a2.68 2.68 0 0 1 1.521-1.497c1.054-.412 3.554-.317 4.718-.317 1.165 0 3.668-.091 4.718.317.7.274 1.24.805 1.522 1.497.417 1.037.321 3.498.321 4.644s.096 3.611-.321 4.645z"/></g><defs><clipPath id="a"><path fill="#fff" d="M0 0h16v18H0z" transform="translate(8 7.264)"/></clipPath></defs></symbol><symbol id="group-6757" viewBox="0 0 32 32"><path fill="#fff" d="M12.293 23.646h-3.05v-9.778h3.05v9.778zm-1.527-11.112A1.777 1.777 0 0 1 9 10.759c0-.467.186-.914.517-1.244a1.77 1.77 0 0 1 2.498 0c.331.33.517.777.517 1.244 0 .97-.79 1.775-1.766 1.775zm12.94 11.112h-3.042v-4.76c0-1.134-.023-2.59-1.586-2.59-1.585 0-1.828 1.233-1.828 2.509v4.841h-3.047v-9.778h2.925v1.334h.043c.407-.769 1.401-1.58 2.885-1.58 3.087 0 3.654 2.024 3.654 4.653v5.371h-.003z"/><rect width="32" height="32" fill="#fff" opacity=".1" rx="6"/></symbol><symbol id="group-6758" viewBox="0 0 32 32"><g clip-path="url(#a)"><path fill="#fff" d="M21.517 12.945c.01.129.01.258.01.387 0 3.942-3.108 8.484-8.786 8.484A8.954 8.954 0 0 1 8 20.477c.249.028.488.037.746.037a6.32 6.32 0 0 0 3.833-1.274c-1.358-.027-2.495-.886-2.887-2.067.191.027.382.046.583.046.277 0 .554-.037.813-.102-1.415-.277-2.476-1.477-2.476-2.926v-.037c.41.222.889.36 1.395.379a2.954 2.954 0 0 1-1.376-2.484c0-.554.153-1.061.42-1.504 1.52 1.809 3.805 2.99 6.367 3.12a3.254 3.254 0 0 1-.077-.683c0-1.643 1.377-2.982 3.088-2.982.889 0 1.692.36 2.256.942a6.212 6.212 0 0 0 1.96-.72 2.994 2.994 0 0 1-1.358 1.643 6.362 6.362 0 0 0 1.778-.462 6.516 6.516 0 0 1-1.548 1.542z"/></g><rect width="32" height="32" fill="#fff" opacity=".1" rx="6"/><defs><clipPath id="a"><path fill="#fff" d="M0 0h15.07v12.55H0z" transform="translate(8 10)"/></clipPath></defs></symbol><symbol id="group-6760" viewBox="0 0 32 33"><path fill="#fff" d="M25.272 12.287a2.328 2.328 0 0 0-1.65-1.637c-1.455-.386-7.291-.386-7.291-.386s-5.836 0-7.291.386a2.328 2.328 0 0 0-1.65 1.637C7 13.73 7 16.74 7 16.74s0 3.012.39 4.455c.215.797.847 1.398 1.65 1.61 1.455.387 7.29.387 7.29.387s5.837 0 7.292-.387c.803-.212 1.435-.813 1.65-1.61.39-1.443.39-4.455.39-4.455s0-3.01-.39-4.454zm-10.85 7.189v-5.469l4.878 2.735-4.878 2.734z"/><rect width="32" height="32" y=".26" fill="#fff" opacity=".1" rx="6"/></symbol></svg>