<svg xmlns="http://www.w3.org/2000/svg"><symbol id="group-1000002650" viewBox="0 0 149 38"><path fill="#fff" d="M49.914 29.38a8.886 8.886 0 0 1-3.237-.605c-1.042-.404-1.867-.934-2.477-1.59-.563-.536-.582-1.075-.057-1.62l.493-.548c.497-.544 1.032-.573 1.605-.085 1.126.986 2.336 1.478 3.631 1.478.62 0 1.117-.127 1.492-.38.375-.263.563-.6.563-1.013a1.14 1.14 0 0 0-.14-.563 1.609 1.609 0 0 0-.296-.423c-.103-.112-.277-.234-.521-.365a6.908 6.908 0 0 0-.577-.296c-.14-.066-.37-.16-.69-.282a8.544 8.544 0 0 1-.281-.112c-.432-.15-.774-.268-1.028-.352a21.72 21.72 0 0 1-.971-.394 6.929 6.929 0 0 1-.929-.479c-.225-.15-.479-.338-.76-.563a3.007 3.007 0 0 1-.648-.718 3.758 3.758 0 0 1-.38-.872 3.691 3.691 0 0 1-.154-1.084c0-1.304.497-2.346 1.492-3.125.994-.788 2.322-1.182 3.983-1.182.938 0 1.848.155 2.73.464.892.3 1.614.714 2.168 1.239.282.244.432.488.45.732.02.235-.112.54-.394.915l-.408.52c-.469.535-.995.582-1.576.141-.93-.75-1.92-1.126-2.97-1.126-.554 0-.995.113-1.323.338-.329.216-.493.507-.493.873 0 .103.014.202.042.295a.858.858 0 0 0 .141.254c.075.084.14.16.197.225.066.066.164.136.296.211.14.075.258.14.352.197.094.047.234.108.422.183.188.075.338.136.45.183.113.047.287.117.521.211.244.085.427.15.549.197.563.226 1.032.432 1.408.62a8.83 8.83 0 0 1 1.182.69c.413.28.736.572.971.872.244.3.446.666.605 1.098.16.431.24.905.24 1.421 0 1.361-.521 2.44-1.563 3.238-1.032.788-2.402 1.182-4.11 1.182zm17.65-15.173c1.38 0 2.623.338 3.73 1.013a6.85 6.85 0 0 1 2.576 2.745c.62 1.154.93 2.43.93 3.829 0 1.398-.306 2.674-.916 3.828a6.941 6.941 0 0 1-2.59 2.745c-1.107.675-2.35 1.013-3.73 1.013-1.641 0-3.072-.493-4.292-1.478v5.475c0 .348-.099.615-.296.803-.188.197-.455.295-.802.295h-1.675c-.338 0-.6-.098-.788-.295-.179-.188-.268-.455-.268-.803V18.05c0-.31-.127-.464-.38-.464-.094 0-.24.033-.436.098-.188.057-.32.09-.394.099-.385.131-.666-.08-.845-.633l-.253-1.21c-.188-.592-.052-1.005.408-1.24.563-.328 1.234-.492 2.013-.492.732 0 1.365.173 1.9.52.544.338.92.86 1.126 1.563 1.36-1.389 3.021-2.083 4.983-2.083zm-.576 11.823c1.191 0 2.158-.403 2.899-1.21.741-.817 1.112-1.825 1.112-3.026 0-1.211-.37-2.224-1.112-3.04-.741-.817-1.708-1.225-2.9-1.225-1.144 0-2.092.38-2.843 1.14-.75.75-1.126 1.792-1.126 3.125 0 1.313.376 2.35 1.126 3.11.751.75 1.699 1.126 2.843 1.126zm20.62-11.556c.262.085.455.211.577.38.122.17.131.427.028.775l-.38 1.435c-.169.62-.544.84-1.126.662a3.92 3.92 0 0 0-1.295-.226c-.92 0-1.642.324-2.168.972-.516.647-.774 1.496-.774 2.547v6.855c0 .347-.098.624-.295.83-.188.197-.455.296-.803.296h-1.675c-.337 0-.6-.099-.788-.296-.178-.206-.267-.483-.267-.83v-9.825c0-.31-.127-.464-.38-.464-.094 0-.24.033-.437.098a2.72 2.72 0 0 1-.394.099c-.384.131-.666-.08-.844-.633l-.254-1.21c-.187-.592-.051-1.005.409-1.24.563-.328 1.234-.492 2.012-.492.732 0 1.37.178 1.915.535.544.356.915.891 1.112 1.604.928-1.426 2.266-2.14 4.011-2.14.6 0 1.206.09 1.816.268zm14.624 12.738c-1.483 1.445-3.36 2.168-5.63 2.168-2.271 0-4.157-.723-5.659-2.168-1.491-1.445-2.237-3.25-2.237-5.418s.746-3.974 2.237-5.42c1.502-1.444 3.388-2.167 5.659-2.167 2.27 0 4.147.723 5.63 2.168 1.492 1.445 2.238 3.25 2.238 5.419 0 2.167-.746 3.973-2.238 5.418zm-5.63-1.182c1.182 0 2.153-.399 2.913-1.196.77-.798 1.155-1.811 1.155-3.04 0-1.23-.385-2.248-1.155-3.055-.76-.807-1.73-1.21-2.913-1.21-1.183 0-2.163.403-2.942 1.21-.77.807-1.154 1.825-1.154 3.055 0 1.229.385 2.242 1.154 3.04.77.797 1.75 1.196 2.942 1.196zm26.377 1.59c.206.564.084.967-.366 1.211-.629.366-1.361.549-2.196.549-.76 0-1.403-.202-1.928-.605-.516-.413-.864-1-1.042-1.76-.929 1.577-2.388 2.365-4.377 2.365-1.755 0-3.172-.544-4.251-1.633-1.07-1.098-1.605-2.533-1.605-4.307v-7.896c0-.347.09-.614.268-.802.188-.197.455-.296.802-.296h1.661c.347 0 .615.099.802.296.197.188.296.455.296.802v7.46c0 .92.258 1.66.774 2.224.516.553 1.211.83 2.083.83.91 0 1.633-.286 2.168-.858.535-.573.802-1.333.802-2.28v-7.376c0-.347.089-.614.268-.802.187-.197.455-.296.802-.296h1.675c.347 0 .614.099.802.296.188.188.282.455.282.802v10.022c0 .366.126.549.38.549.084 0 .201-.02.351-.057.151-.047.263-.075.338-.084.432-.113.732.098.901.633l.31 1.014zm11.71-.408c.235.45.071.864-.492 1.24-.864.618-1.938.928-3.224.928-1.463 0-2.674-.441-3.631-1.323-.957-.882-1.436-2.172-1.436-3.87v-6.855h-1.421c-.347 0-.624-.094-.831-.282-.197-.197-.295-.469-.295-.816v-.718c0-.338.098-.6.295-.788.207-.188.484-.282.831-.282h1.421v-3.631c0-.61.362-.985 1.084-1.126l1.563-.324c.375-.084.661-.019.858.197.197.207.296.507.296.9v3.984h3.195c.347 0 .619.094.816.282.207.187.31.45.31.788v.718c0 .347-.103.62-.31.816-.197.188-.469.282-.816.282h-3.195v6.502c0 1.483.633 2.224 1.9 2.224.356 0 .797-.145 1.323-.436.206-.15.389-.216.549-.197.169.019.3.075.394.169.103.094.202.23.296.408l.52 1.21zm7.052 2.168a8.88 8.88 0 0 1-3.237-.605c-1.042-.404-1.868-.934-2.478-1.59-.563-.536-.581-1.075-.056-1.62l.493-.548c.497-.544 1.032-.573 1.604-.085 1.126.986 2.337 1.478 3.632 1.478.619 0 1.116-.127 1.492-.38.375-.263.563-.6.563-1.013 0-.207-.047-.394-.141-.563a1.589 1.589 0 0 0-.296-.423c-.103-.112-.276-.234-.52-.365a7.003 7.003 0 0 0-.577-.296c-.141-.066-.371-.16-.69-.282a8.85 8.85 0 0 1-.282-.112 81.78 81.78 0 0 0-1.027-.352 21.822 21.822 0 0 1-.971-.394 6.88 6.88 0 0 1-.929-.479c-.225-.15-.479-.338-.76-.563a2.997 2.997 0 0 1-.648-.718 3.754 3.754 0 0 1-.38-.872 3.698 3.698 0 0 1-.155-1.084c0-1.304.498-2.346 1.492-3.125.995-.788 2.323-1.182 3.984-1.182.938 0 1.848.155 2.73.464.892.3 1.614.714 2.168 1.239.281.244.431.488.45.732.019.235-.112.54-.394.915l-.408.52c-.469.535-.995.582-1.577.141-.928-.75-1.918-1.126-2.969-1.126-.554 0-.995.113-1.323.338-.329.216-.493.507-.493.873 0 .103.014.202.042.295a.848.848 0 0 0 .141.254c.075.084.141.16.197.225.066.066.164.136.296.211.14.075.258.14.351.197.094.047.235.108.423.183l.45.183c.113.047.286.117.521.211.244.085.427.15.549.197a18.87 18.87 0 0 1 1.407.62c.376.178.77.408 1.183.69.413.28.736.572.971.872.244.3.446.666.605 1.098.16.431.239.905.239 1.421 0 1.361-.52 2.44-1.562 3.238-1.032.788-2.402 1.182-4.11 1.182z"/><path fill="url(#paint0_linear_169_274)" d="M0 23.9V9.742a6.345 6.345 0 0 1 6.347-6.348h14.147c7.425 0 13.445 6.02 13.445 13.445v14.147a6.345 6.345 0 0 1-6.348 6.347H13.444C6.02 37.345 0 31.325 0 23.9z"/><path stroke="#F1F2F2" stroke-miterlimit="10" stroke-width="1.67" d="M21.619 9.285v7.987a3.509 3.509 0 0 1-3.514 3.513h-2.588a3.189 3.189 0 0 0-3.185 3.185"/><path fill="#F1F2F2" d="M19.968 11.018c-.094 3.748-.621 4.415-2.577 4.415h-1.874a4.913 4.913 0 0 0-4.907 4.907v2.471a3.33 3.33 0 0 1-1.604-2.846v-3.49a5.463 5.463 0 0 1 5.457-5.457h5.505zm1.744-1.733h-7.249a7.18 7.18 0 0 0-7.179 7.179v3.49a5.06 5.06 0 0 0 5.06 5.059V20.34a3.189 3.189 0 0 1 3.185-3.185h1.874c4.31 0 4.31-3.525 4.31-7.87z"/><path fill="#F1F2F2" d="M23.34 17.202a3.33 3.33 0 0 1 1.605 2.846v3.49a5.463 5.463 0 0 1-5.458 5.457h-5.434v-1.218a1.8 1.8 0 0 1 1.792-1.792h2.588a4.913 4.913 0 0 0 4.907-4.907v-3.876zm-1.721-2.214v6.079a3.189 3.189 0 0 1-3.186 3.185h-2.588a3.509 3.509 0 0 0-3.513 3.513v2.94h7.155a7.18 7.18 0 0 0 7.18-7.18v-3.49c.011-2.786-2.261-5.047-5.048-5.047z"/><path stroke="#F1F2F2" stroke-miterlimit="10" stroke-width="1.67" d="M12.332 23.982v6.734"/><defs><linearGradient id="paint0_linear_169_274" x2="33.95" y1="20.37" y2="20.37" gradientUnits="userSpaceOnUse"><stop offset="0" stop-color="#00D95B"/><stop offset="1" stop-color="#61C91E"/></linearGradient></defs></symbol><symbol id="group-1000002650" viewBox="0 0 149 38"><path fill="#fff" d="M49.914 29.38a8.886 8.886 0 0 1-3.237-.605c-1.042-.404-1.867-.934-2.477-1.59-.563-.536-.582-1.075-.057-1.62l.493-.548c.497-.544 1.032-.573 1.605-.085 1.126.986 2.336 1.478 3.631 1.478.62 0 1.117-.127 1.492-.38.375-.263.563-.6.563-1.013a1.14 1.14 0 0 0-.14-.563 1.609 1.609 0 0 0-.296-.423c-.103-.112-.277-.234-.521-.365a6.908 6.908 0 0 0-.577-.296c-.14-.066-.37-.16-.69-.282a8.544 8.544 0 0 1-.281-.112c-.432-.15-.774-.268-1.028-.352a21.72 21.72 0 0 1-.971-.394 6.929 6.929 0 0 1-.929-.479c-.225-.15-.479-.338-.76-.563a3.007 3.007 0 0 1-.648-.718 3.758 3.758 0 0 1-.38-.872 3.691 3.691 0 0 1-.154-1.084c0-1.304.497-2.346 1.492-3.125.994-.788 2.322-1.182 3.983-1.182.938 0 1.848.155 2.73.464.892.3 1.614.714 2.168 1.239.282.244.432.488.45.732.02.235-.112.54-.394.915l-.408.52c-.469.535-.995.582-1.576.141-.93-.75-1.92-1.126-2.97-1.126-.554 0-.995.113-1.323.338-.329.216-.493.507-.493.873 0 .103.014.202.042.295a.858.858 0 0 0 .141.254c.075.084.14.16.197.225.066.066.164.136.296.211.14.075.258.14.352.197.094.047.234.108.422.183.188.075.338.136.45.183.113.047.287.117.521.211.244.085.427.15.549.197.563.226 1.032.432 1.408.62a8.83 8.83 0 0 1 1.182.69c.413.28.736.572.971.872.244.3.446.666.605 1.098.16.431.24.905.24 1.421 0 1.361-.521 2.44-1.563 3.238-1.032.788-2.402 1.182-4.11 1.182zm17.65-15.173c1.38 0 2.623.338 3.73 1.013a6.85 6.85 0 0 1 2.576 2.745c.62 1.154.93 2.43.93 3.829 0 1.398-.306 2.674-.916 3.828a6.941 6.941 0 0 1-2.59 2.745c-1.107.675-2.35 1.013-3.73 1.013-1.641 0-3.072-.493-4.292-1.478v5.475c0 .348-.099.615-.296.803-.188.197-.455.295-.802.295h-1.675c-.338 0-.6-.098-.788-.295-.179-.188-.268-.455-.268-.803V18.05c0-.31-.127-.464-.38-.464-.094 0-.24.033-.436.098-.188.057-.32.09-.394.099-.385.131-.666-.08-.845-.633l-.253-1.21c-.188-.592-.052-1.005.408-1.24.563-.328 1.234-.492 2.013-.492.732 0 1.365.173 1.9.52.544.338.92.86 1.126 1.563 1.36-1.389 3.021-2.083 4.983-2.083zm-.576 11.823c1.191 0 2.158-.403 2.899-1.21.741-.817 1.112-1.825 1.112-3.026 0-1.211-.37-2.224-1.112-3.04-.741-.817-1.708-1.225-2.9-1.225-1.144 0-2.092.38-2.843 1.14-.75.75-1.126 1.792-1.126 3.125 0 1.313.376 2.35 1.126 3.11.751.75 1.699 1.126 2.843 1.126zm20.62-11.556c.262.085.455.211.577.38.122.17.131.427.028.775l-.38 1.435c-.169.62-.544.84-1.126.662a3.92 3.92 0 0 0-1.295-.226c-.92 0-1.642.324-2.168.972-.516.647-.774 1.496-.774 2.547v6.855c0 .347-.098.624-.295.83-.188.197-.455.296-.803.296h-1.675c-.337 0-.6-.099-.788-.296-.178-.206-.267-.483-.267-.83v-9.825c0-.31-.127-.464-.38-.464-.094 0-.24.033-.437.098a2.72 2.72 0 0 1-.394.099c-.384.131-.666-.08-.844-.633l-.254-1.21c-.187-.592-.051-1.005.409-1.24.563-.328 1.234-.492 2.012-.492.732 0 1.37.178 1.915.535.544.356.915.891 1.112 1.604.928-1.426 2.266-2.14 4.011-2.14.6 0 1.206.09 1.816.268zm14.624 12.738c-1.483 1.445-3.36 2.168-5.63 2.168-2.271 0-4.157-.723-5.659-2.168-1.491-1.445-2.237-3.25-2.237-5.418s.746-3.974 2.237-5.42c1.502-1.444 3.388-2.167 5.659-2.167 2.27 0 4.147.723 5.63 2.168 1.492 1.445 2.238 3.25 2.238 5.419 0 2.167-.746 3.973-2.238 5.418zm-5.63-1.182c1.182 0 2.153-.399 2.913-1.196.77-.798 1.155-1.811 1.155-3.04 0-1.23-.385-2.248-1.155-3.055-.76-.807-1.73-1.21-2.913-1.21-1.183 0-2.163.403-2.942 1.21-.77.807-1.154 1.825-1.154 3.055 0 1.229.385 2.242 1.154 3.04.77.797 1.75 1.196 2.942 1.196zm26.377 1.59c.206.564.084.967-.366 1.211-.629.366-1.361.549-2.196.549-.76 0-1.403-.202-1.928-.605-.516-.413-.864-1-1.042-1.76-.929 1.577-2.388 2.365-4.377 2.365-1.755 0-3.172-.544-4.251-1.633-1.07-1.098-1.605-2.533-1.605-4.307v-7.896c0-.347.09-.614.268-.802.188-.197.455-.296.802-.296h1.661c.347 0 .615.099.802.296.197.188.296.455.296.802v7.46c0 .92.258 1.66.774 2.224.516.553 1.211.83 2.083.83.91 0 1.633-.286 2.168-.858.535-.573.802-1.333.802-2.28v-7.376c0-.347.089-.614.268-.802.187-.197.455-.296.802-.296h1.675c.347 0 .614.099.802.296.188.188.282.455.282.802v10.022c0 .366.126.549.38.549.084 0 .201-.02.351-.057.151-.047.263-.075.338-.084.432-.113.732.098.901.633l.31 1.014zm11.71-.408c.235.45.071.864-.492 1.24-.864.618-1.938.928-3.224.928-1.463 0-2.674-.441-3.631-1.323-.957-.882-1.436-2.172-1.436-3.87v-6.855h-1.421c-.347 0-.624-.094-.831-.282-.197-.197-.295-.469-.295-.816v-.718c0-.338.098-.6.295-.788.207-.188.484-.282.831-.282h1.421v-3.631c0-.61.362-.985 1.084-1.126l1.563-.324c.375-.084.661-.019.858.197.197.207.296.507.296.9v3.984h3.195c.347 0 .619.094.816.282.207.187.31.45.31.788v.718c0 .347-.103.62-.31.816-.197.188-.469.282-.816.282h-3.195v6.502c0 1.483.633 2.224 1.9 2.224.356 0 .797-.145 1.323-.436.206-.15.389-.216.549-.197.169.019.3.075.394.169.103.094.202.23.296.408l.52 1.21zm7.052 2.168a8.88 8.88 0 0 1-3.237-.605c-1.042-.404-1.868-.934-2.478-1.59-.563-.536-.581-1.075-.056-1.62l.493-.548c.497-.544 1.032-.573 1.604-.085 1.126.986 2.337 1.478 3.632 1.478.619 0 1.116-.127 1.492-.38.375-.263.563-.6.563-1.013 0-.207-.047-.394-.141-.563a1.589 1.589 0 0 0-.296-.423c-.103-.112-.276-.234-.52-.365a7.003 7.003 0 0 0-.577-.296c-.141-.066-.371-.16-.69-.282a8.85 8.85 0 0 1-.282-.112 81.78 81.78 0 0 0-1.027-.352 21.822 21.822 0 0 1-.971-.394 6.88 6.88 0 0 1-.929-.479c-.225-.15-.479-.338-.76-.563a2.997 2.997 0 0 1-.648-.718 3.754 3.754 0 0 1-.38-.872 3.698 3.698 0 0 1-.155-1.084c0-1.304.498-2.346 1.492-3.125.995-.788 2.323-1.182 3.984-1.182.938 0 1.848.155 2.73.464.892.3 1.614.714 2.168 1.239.281.244.431.488.45.732.019.235-.112.54-.394.915l-.408.52c-.469.535-.995.582-1.577.141-.928-.75-1.918-1.126-2.969-1.126-.554 0-.995.113-1.323.338-.329.216-.493.507-.493.873 0 .103.014.202.042.295a.848.848 0 0 0 .141.254c.075.084.141.16.197.225.066.066.164.136.296.211.14.075.258.14.351.197.094.047.235.108.423.183l.45.183c.113.047.286.117.521.211.244.085.427.15.549.197a18.87 18.87 0 0 1 1.407.62c.376.178.77.408 1.183.69.413.28.736.572.971.872.244.3.446.666.605 1.098.16.431.239.905.239 1.421 0 1.361-.52 2.44-1.562 3.238-1.032.788-2.402 1.182-4.11 1.182z"/><path fill="url(#paint0_linear_169_274)" d="M0 23.9V9.742a6.345 6.345 0 0 1 6.347-6.348h14.147c7.425 0 13.445 6.02 13.445 13.445v14.147a6.345 6.345 0 0 1-6.348 6.347H13.444C6.02 37.345 0 31.325 0 23.9z"/><path stroke="#F1F2F2" stroke-miterlimit="10" stroke-width="1.67" d="M21.619 9.285v7.987a3.509 3.509 0 0 1-3.514 3.513h-2.588a3.189 3.189 0 0 0-3.185 3.185"/><path fill="#F1F2F2" d="M19.968 11.018c-.094 3.748-.621 4.415-2.577 4.415h-1.874a4.913 4.913 0 0 0-4.907 4.907v2.471a3.33 3.33 0 0 1-1.604-2.846v-3.49a5.463 5.463 0 0 1 5.457-5.457h5.505zm1.744-1.733h-7.249a7.18 7.18 0 0 0-7.179 7.179v3.49a5.06 5.06 0 0 0 5.06 5.059V20.34a3.189 3.189 0 0 1 3.185-3.185h1.874c4.31 0 4.31-3.525 4.31-7.87z"/><path fill="#F1F2F2" d="M23.34 17.202a3.33 3.33 0 0 1 1.605 2.846v3.49a5.463 5.463 0 0 1-5.458 5.457h-5.434v-1.218a1.8 1.8 0 0 1 1.792-1.792h2.588a4.913 4.913 0 0 0 4.907-4.907v-3.876zm-1.721-2.214v6.079a3.189 3.189 0 0 1-3.186 3.185h-2.588a3.509 3.509 0 0 0-3.513 3.513v2.94h7.155a7.18 7.18 0 0 0 7.18-7.18v-3.49c.011-2.786-2.261-5.047-5.048-5.047z"/><path stroke="#F1F2F2" stroke-miterlimit="10" stroke-width="1.67" d="M12.332 23.982v6.734"/><defs><linearGradient id="paint0_linear_169_274" x2="33.95" y1="20.37" y2="20.37" gradientUnits="userSpaceOnUse"><stop offset="0" stop-color="#00D95B"/><stop offset="1" stop-color="#61C91E"/></linearGradient></defs></symbol></svg>