<svg width="34" height="35" viewBox="0 0 34 35" fill="none" xmlns="http://www.w3.org/2000/svg">
<path d="M0 20.9004V6.7416C0 3.22826 2.84581 0.394165 6.34744 0.394165H20.4945C27.9194 0.394165 33.9389 6.41369 33.9389 13.8385V27.9856C33.9389 31.4989 31.0931 34.333 27.5915 34.333H13.4444C6.01953 34.3447 0 28.3252 0 20.9004Z" fill="url(#paint0_linear_169_277)"/>
<path d="M21.6188 6.28467V14.2717C21.6188 16.2157 20.0495 17.785 18.1054 17.785H15.5173C13.7606 17.785 12.3318 19.2138 12.3318 20.9704" stroke="#F1F2F2" stroke-width="1.66629" stroke-miterlimit="10"/>
<path d="M19.9675 8.01804C19.8738 11.7656 19.3468 12.4331 17.391 12.4331H15.5173C12.812 12.4331 10.6103 14.6348 10.6103 17.3401V19.8112C9.64998 19.2256 9.00587 18.1716 9.00587 16.9653V13.4754C9.00587 10.4657 11.4535 8.01804 14.4633 8.01804H19.9675V8.01804ZM21.7125 6.28479H14.4633C10.4932 6.28479 7.28433 9.50535 7.28433 13.4637V16.9536C7.28433 19.7409 9.54458 22.0128 12.3435 22.0128V17.3401C12.3435 15.5834 13.7723 14.1547 15.529 14.1547H17.4028C21.7125 14.1547 21.7125 10.6296 21.7125 6.28479Z" fill="#F1F2F2"/>
<path d="M23.3403 14.2018C24.3006 14.7874 24.9447 15.8414 24.9447 17.0476V20.5375C24.9447 23.5473 22.4971 25.9949 19.4873 25.9949H14.0534V24.777C14.0534 23.7932 14.8614 22.9852 15.8452 22.9852H18.4333C21.1386 22.9852 23.3403 20.7835 23.3403 18.0782V14.2018ZM21.6188 11.9884V18.0665C21.6188 19.8232 20.19 21.2519 18.4333 21.2519H15.8452C13.9011 21.2519 12.3318 22.8212 12.3318 24.7653V27.7047H19.4873C23.4574 27.7047 26.6663 24.4842 26.6663 20.5258V17.0359C26.678 14.2487 24.406 11.9884 21.6188 11.9884Z" fill="#F1F2F2"/>
<path d="M12.3318 20.9822V27.7161" stroke="#F1F2F2" stroke-width="1.66629" stroke-miterlimit="10"/>
<defs>
<linearGradient id="paint0_linear_169_277" x1="-7.32181e-05" y1="17.3687" x2="33.9479" y2="17.3688" gradientUnits="userSpaceOnUse">
<stop offset="0.00184478" stop-color="#00D95B"/>
<stop offset="1" stop-color="#61C91E"/>
</linearGradient>
</defs>
</svg>
