<?xml version="1.0" standalone="no"?>
<!DOCTYPE svg PUBLIC "-//W3C//DTD SVG 20010904//EN"
 "http://www.w3.org/TR/2001/REC-SVG-20010904/DTD/svg10.dtd">
<svg version="1.0" xmlns="http://www.w3.org/2000/svg"
 width="96.000000pt" height="96.000000pt" viewBox="0 0 96.000000 96.000000"
 preserveAspectRatio="xMidYMid meet">
<metadata>
Created by potrace 1.14, written by Peter Selinger 2001-2017
</metadata>
<g transform="translate(0.000000,96.000000) scale(0.100000,-0.100000)"
fill="#000000" stroke="none">
<path d="M265 948 c-106 -34 -182 -100 -229 -198 l-31 -65 -3 -248 c-4 -287 2
-322 68 -381 59 -53 92 -58 369 -54 l246 3 65 31 c105 50 174 135 200 246 5
24 10 145 10 269 0 180 -3 235 -16 272 -19 56 -77 112 -133 127 -50 13 -503
12 -546 -2z"/>
</g>
</svg>
