<svg width="0" height="0" class="hidden">
  <symbol fill="none" xmlns="http://www.w3.org/2000/svg" viewBox="0 0 32 33" id="Group_1000002315">
    <rect opacity="0.1" y="0.263672" width="32" height="32" rx="6" fill="white"></rect>
    <g class="white_color" clip-path="url(#clip0_120_623)">
      <path d="M16.0043 12.221C13.7329 12.221 11.9007 14.0245 11.9007 16.2604C11.9007 18.4964 13.7329 20.2999 16.0043 20.2999C18.2757 20.2999 20.1079 18.4964 20.1079 16.2604C20.1079 14.0245 18.2757 12.221 16.0043 12.221ZM16.0043 18.8866C14.5364 18.8866 13.3364 17.7089 13.3364 16.2604C13.3364 14.812 14.5329 13.6343 16.0043 13.6343C17.4757 13.6343 18.6722 14.812 18.6722 16.2604C18.6722 17.7089 17.4722 18.8866 16.0043 18.8866ZM21.2329 12.0558C21.2329 12.5796 20.8043 12.9979 20.2757 12.9979C19.7436 12.9979 19.3186 12.5761 19.3186 12.0558C19.3186 11.5354 19.7472 11.1136 20.2757 11.1136C20.8043 11.1136 21.2329 11.5354 21.2329 12.0558ZM23.9507 13.012C23.89 11.7499 23.5972 10.6319 22.6579 9.71084C21.7222 8.78975 20.5864 8.50146 19.3043 8.43818C17.9829 8.36436 14.0222 8.36436 12.7007 8.43818C11.4222 8.49795 10.2864 8.78623 9.34715 9.70732C8.40787 10.6284 8.11858 11.7464 8.0543 13.0085C7.9793 14.3093 7.9793 18.2081 8.0543 19.5089C8.11501 20.771 8.40787 21.889 9.34715 22.8101C10.2864 23.7312 11.4186 24.0194 12.7007 24.0827C14.0222 24.1565 17.9829 24.1565 19.3043 24.0827C20.5864 24.0229 21.7222 23.7347 22.6579 22.8101C23.5936 21.889 23.8864 20.771 23.9507 19.5089C24.0257 18.2081 24.0257 14.3128 23.9507 13.012ZM22.2436 20.9046C21.965 21.5937 21.4257 22.1245 20.7222 22.4022C19.6686 22.8136 17.1686 22.7187 16.0043 22.7187C14.84 22.7187 12.3364 22.8101 11.2864 22.4022C10.5864 22.128 10.0472 21.5972 9.76501 20.9046C9.34715 19.8675 9.44358 17.4065 9.44358 16.2604C9.44358 15.1144 9.35073 12.6499 9.76501 11.6163C10.0436 10.9272 10.5829 10.3964 11.2864 10.1187C12.34 9.70732 14.84 9.80225 16.0043 9.80225C17.1686 9.80225 19.6722 9.71084 20.7222 10.1187C21.4222 10.3929 21.9614 10.9237 22.2436 11.6163C22.6614 12.6534 22.565 15.1144 22.565 16.2604C22.565 17.4065 22.6614 19.871 22.2436 20.9046Z" fill="white"></path>
    </g>
    <defs>
      <clipPath id="clip0_120_623">
        <rect class="white_color" fill="white" width="16" height="18"  transform="translate(8 7.26367)"></rect>
      </clipPath>
    </defs>
  </symbol>
  <symbol fill="none" xmlns="http://www.w3.org/2000/svg" viewBox="0 0 32 32" id="Group_6759">
    <path d="M20.0426 16.945L20.4889 14.0671H17.6984V12.1995C17.6984 11.4121 18.0882 10.6447 19.338 10.6447H20.6066V8.19443C20.6066 8.19443 19.4554 8 18.3547 8C16.0566 8 14.5545 9.3784 14.5545 11.8737V14.0671H12V16.945H14.5545V23.9022H17.6984V16.945H20.0426Z" fill="white"></path>
    <rect opacity="0.1" width="32" height="32" rx="6" fill="white"></rect>
  </symbol>
  <symbol fill="none" xmlns="http://www.w3.org/2000/svg" viewBox="0 0 32 32" id="Group_6758">
    <g clip-path="url(#clip0_120_616)">
      <path d="M21.5167 12.9447C21.5262 13.074 21.5262 13.2032 21.5262 13.3324C21.5262 17.2741 18.4195 21.8159 12.7414 21.8159C10.992 21.8159 9.36697 21.3266 8 20.4774C8.24855 20.505 8.4875 20.5143 8.74561 20.5143C10.189 20.5143 11.5178 20.0435 12.5788 19.2404C11.2214 19.2127 10.0839 18.3542 9.69196 17.1726C9.88316 17.2003 10.0743 17.2187 10.2751 17.2187C10.5523 17.2187 10.8295 17.1818 11.0876 17.1172C9.67286 16.8403 8.61176 15.6402 8.61176 14.1909V14.154C9.02279 14.3756 9.50079 14.514 10.0074 14.5325C9.17574 13.9971 8.63089 13.0832 8.63089 12.0493C8.63089 11.4954 8.78381 10.9877 9.05148 10.5446C10.5714 12.3539 12.8561 13.5355 15.4179 13.6647C15.3701 13.4432 15.3414 13.2124 15.3414 12.9817C15.3414 11.3385 16.7179 10 18.429 10C19.318 10 20.121 10.36 20.685 10.9416C21.3828 10.8123 22.0519 10.5631 22.6446 10.2215C22.4152 10.9139 21.9277 11.4955 21.2872 11.8647C21.9086 11.8001 22.5108 11.6339 23.0652 11.4031C22.6447 11.9939 22.1189 12.5201 21.5167 12.9447Z" fill="white"></path>
    </g>
    <rect opacity="0.1" width="32" height="32" rx="6" fill="white"></rect>
    <defs>
      <clipPath id="clip0_120_616">
        <rect width="15.0652" height="12.5543" fill="white" transform="translate(8 10)"></rect>
      </clipPath>
    </defs>
  </symbol>
  <symbol fill="none" xmlns="http://www.w3.org/2000/svg" viewBox="0 0 32 32" id="Group_6757">
    <path d="M12.2927 23.6464H9.24298V13.8678H12.2927V23.6464ZM10.7662 12.5339C9.791 12.5339 9 11.7296 9 10.7586C9 10.2922 9.18608 9.84488 9.51731 9.51508C9.84854 9.18528 10.2978 9 10.7662 9C11.2346 9 11.6839 9.18528 12.0151 9.51508C12.3463 9.84488 12.5324 10.2922 12.5324 10.7586C12.5324 11.7296 11.7411 12.5339 10.7662 12.5339ZM23.7069 23.6464H20.6637V18.8862C20.6637 17.7518 20.6407 16.2969 19.0781 16.2969C17.4925 16.2969 17.2495 17.5294 17.2495 18.8045V23.6464H14.2031V13.8678H17.128V15.2017H17.1707C17.5779 14.4334 18.5724 13.6226 20.0562 13.6226C23.1428 13.6226 23.7101 15.6463 23.7101 18.2749V23.6464H23.7069Z" fill="white"></path>
    <rect opacity="0.1" width="32" height="32" rx="6" fill="white"></rect>
  </symbol>
  <symbol fill="none" xmlns="http://www.w3.org/2000/svg" viewBox="0 0 32 33" id="Group_6760">
    <path d="M25.2718 12.2867C25.0572 11.4904 24.4248 10.8632 23.6219 10.6504C22.1666 10.2637 16.3309 10.2637 16.3309 10.2637C16.3309 10.2637 10.4952 10.2637 9.03985 10.6504C8.23694 10.8633 7.60458 11.4904 7.38996 12.2867C7 13.7301 7 16.7415 7 16.7415C7 16.7415 7 19.7529 7.38996 21.1963C7.60458 21.9926 8.23694 22.5936 9.03985 22.8065C10.4952 23.1932 16.3309 23.1932 16.3309 23.1932C16.3309 23.1932 22.1666 23.1932 23.6219 22.8065C24.4248 22.5936 25.0572 21.9926 25.2718 21.1963C25.6618 19.7529 25.6618 16.7415 25.6618 16.7415C25.6618 16.7415 25.6618 13.7301 25.2718 12.2867ZM14.4223 19.4757V14.0073L19.2998 16.7416L14.4223 19.4757Z" fill="white"></path>
    <rect opacity="0.1" y="0.263672" width="32" height="32" rx="6" fill="white"></rect>
  </symbol>
  <symbol fill="none" xmlns="http://www.w3.org/2000/svg" viewBox="0 0 149 38" id="Group_1000002648">
    <path d="M49.9143 29.38C48.7976 29.38 47.7185 29.1783 46.677 28.7748C45.6354 28.3713 44.8097 27.8411 44.1997 27.1843C43.6367 26.6494 43.618 26.1099 44.1434 25.5656L44.6361 25.0167C45.1334 24.4725 45.6682 24.4443 46.2406 24.9323C47.3667 25.9175 48.5771 26.4102 49.872 26.4102C50.4914 26.4102 50.9887 26.2835 51.364 26.0301C51.7394 25.7674 51.927 25.4296 51.927 25.0167C51.927 24.8103 51.8801 24.6226 51.7863 24.4537C51.7018 24.2848 51.6033 24.144 51.4907 24.0314C51.3875 23.9188 51.2139 23.7969 50.9699 23.6655C50.7353 23.5341 50.543 23.4356 50.3928 23.3699C50.2521 23.3042 50.0222 23.2104 49.7031 23.0884C49.5812 23.0415 49.4873 23.004 49.4216 22.9758C48.99 22.8257 48.6475 22.7084 48.3941 22.6239C48.1408 22.5301 47.8171 22.3987 47.423 22.2298C47.0382 22.0609 46.7286 21.9014 46.494 21.7513C46.2688 21.6011 46.0154 21.4135 45.7339 21.1883C45.4524 20.9537 45.2366 20.7144 45.0865 20.4704C44.9363 20.2264 44.8097 19.9356 44.7064 19.5978C44.6032 19.2599 44.5516 18.8987 44.5516 18.514C44.5516 17.2097 45.0489 16.1681 46.0436 15.3893C47.0382 14.601 48.366 14.2069 50.0269 14.2069C50.9652 14.2069 51.8754 14.3618 52.7575 14.6714C53.6489 14.9717 54.3714 15.3846 54.925 15.91C55.2066 16.154 55.3567 16.398 55.3755 16.642C55.3942 16.8765 55.2629 17.1815 54.9813 17.5568L54.5732 18.0776C54.104 18.6125 53.5785 18.6594 52.9967 18.2184C52.0678 17.4677 51.0778 17.0924 50.0269 17.0924C49.4732 17.0924 49.0322 17.205 48.7038 17.4302C48.3754 17.646 48.2112 17.9369 48.2112 18.3028C48.2112 18.406 48.2252 18.5046 48.2534 18.5984C48.2815 18.6829 48.3285 18.7673 48.3941 18.8518C48.4692 18.9362 48.5349 19.0113 48.5912 19.077C48.6569 19.1427 48.7554 19.213 48.8868 19.2881C49.0275 19.3632 49.1448 19.4288 49.2387 19.4851C49.3325 19.5321 49.4732 19.5931 49.6609 19.6681C49.8486 19.7432 49.9987 19.8042 50.1113 19.8511C50.2239 19.898 50.3975 19.9684 50.6321 20.0622C50.8761 20.1467 51.0591 20.2124 51.181 20.2593C51.744 20.4845 52.2132 20.6909 52.5886 20.8786C52.9639 21.0569 53.358 21.2868 53.7709 21.5683C54.1838 21.8498 54.5075 22.1407 54.7421 22.4409C54.986 22.7412 55.1878 23.1072 55.3473 23.5388C55.5068 23.9705 55.5866 24.4443 55.5866 24.9604C55.5866 26.321 55.0658 27.4001 54.0242 28.1977C52.992 28.9859 51.6221 29.38 49.9143 29.38ZM67.5646 14.2069C68.944 14.2069 70.1873 14.5447 71.2945 15.2204C72.4018 15.8866 73.2604 16.8015 73.8703 17.965C74.4896 19.1192 74.7993 20.3953 74.7993 21.7935C74.7993 23.1916 74.4943 24.4678 73.8844 25.6219C73.2744 26.7761 72.4112 27.691 71.2945 28.3666C70.1873 29.0422 68.944 29.38 67.5646 29.38C65.9225 29.38 64.4915 28.8874 63.2717 27.9021V33.3774C63.2717 33.7246 63.1731 33.992 62.9761 34.1797C62.7884 34.3767 62.521 34.4753 62.1738 34.4753H60.4988C60.161 34.4753 59.8983 34.3767 59.7106 34.1797C59.5323 33.992 59.4432 33.7246 59.4432 33.3774V18.0495C59.4432 17.7398 59.3165 17.585 59.0632 17.585C58.9693 17.585 58.8239 17.6178 58.6268 17.6835C58.4392 17.7398 58.3078 17.7727 58.2327 17.782C57.848 17.9134 57.5665 17.7023 57.3882 17.1487L57.1349 15.9382C56.9472 15.347 57.0832 14.9342 57.543 14.6996C58.106 14.3712 58.777 14.2069 59.5558 14.2069C60.2877 14.2069 60.9211 14.3805 61.4559 14.7277C62.0002 15.0655 62.3755 15.5863 62.582 16.2901C63.9426 14.9013 65.6034 14.2069 67.5646 14.2069ZM66.9875 26.0301C68.1792 26.0301 69.1457 25.6266 69.887 24.8197C70.6283 24.0033 70.999 22.9946 70.999 21.7935C70.999 20.583 70.6283 19.5696 69.887 18.7532C69.1457 17.9369 68.1792 17.5287 66.9875 17.5287C65.8427 17.5287 64.895 17.9087 64.1443 18.6688C63.3936 19.4195 63.0183 20.461 63.0183 21.7935C63.0183 23.1072 63.3936 24.144 64.1443 24.9041C64.895 25.6548 65.8427 26.0301 66.9875 26.0301ZM87.6077 14.4744C87.8704 14.5588 88.0628 14.6855 88.1848 14.8544C88.3068 15.0233 88.3162 15.2813 88.2129 15.6285L87.8329 17.0642C87.664 17.6835 87.2887 17.904 86.7069 17.7257C86.2753 17.5756 85.8436 17.5005 85.412 17.5005C84.4924 17.5005 83.7699 17.8243 83.2444 18.4717C82.7283 19.1192 82.4703 19.9684 82.4703 21.0193V27.874C82.4703 28.2212 82.3717 28.498 82.1747 28.7044C81.987 28.9015 81.7196 29 81.3724 29H79.6974C79.3596 29 79.0969 28.9015 78.9092 28.7044C78.7309 28.498 78.6418 28.2212 78.6418 27.874V18.0495C78.6418 17.7398 78.5151 17.585 78.2618 17.585C78.1679 17.585 78.0225 17.6178 77.8254 17.6835C77.6378 17.7398 77.5064 17.7727 77.4313 17.782C77.0466 17.9134 76.7651 17.7023 76.5868 17.1487L76.3335 15.9382C76.1458 15.347 76.2818 14.9342 76.7416 14.6996C77.3046 14.3712 77.9756 14.2069 78.7544 14.2069C79.4863 14.2069 80.1244 14.3852 80.6686 14.7418C81.2129 15.0984 81.5835 15.6332 81.7806 16.3464C82.7095 14.9201 84.0467 14.2069 85.792 14.2069C86.3926 14.2069 86.9978 14.2961 87.6077 14.4744ZM102.232 27.2124C100.749 28.6575 98.8726 29.38 96.6018 29.38C94.331 29.38 92.4449 28.6575 90.9435 27.2124C89.4516 25.7674 88.7056 23.9611 88.7056 21.7935C88.7056 19.6259 89.4516 17.8196 90.9435 16.3745C92.4449 14.9295 94.331 14.2069 96.6018 14.2069C98.8726 14.2069 100.749 14.9295 102.232 16.3745C103.724 17.8196 104.47 19.6259 104.47 21.7935C104.47 23.9611 103.724 25.7674 102.232 27.2124ZM96.6018 26.0301C97.7841 26.0301 98.7553 25.6313 99.5154 24.8337C100.285 24.0361 100.67 23.0227 100.67 21.7935C100.67 20.5643 100.285 19.5461 99.5154 18.7392C98.7553 17.9322 97.7841 17.5287 96.6018 17.5287C95.4195 17.5287 94.4389 17.9322 93.6601 18.7392C92.8906 19.5461 92.5059 20.5643 92.5059 21.7935C92.5059 23.0227 92.8906 24.0361 93.6601 24.8337C94.4295 25.6313 95.4101 26.0301 96.6018 26.0301ZM122.979 27.6206C123.185 28.1836 123.063 28.5871 122.613 28.8311C121.984 29.1971 121.252 29.38 120.417 29.38C119.657 29.38 119.014 29.1783 118.489 28.7748C117.973 28.3619 117.625 27.7755 117.447 27.0154C116.518 28.5918 115.059 29.38 113.07 29.38C111.315 29.38 109.898 28.8358 108.819 27.7473C107.749 26.6494 107.214 25.2138 107.214 23.4403V15.5441C107.214 15.1969 107.304 14.9295 107.482 14.7418C107.67 14.5447 107.937 14.4462 108.284 14.4462H109.945C110.292 14.4462 110.56 14.5447 110.747 14.7418C110.944 14.9295 111.043 15.1969 111.043 15.5441V23.004C111.043 23.9235 111.301 24.6648 111.817 25.2278C112.333 25.7815 113.028 26.0583 113.9 26.0583C114.81 26.0583 115.533 25.7721 116.068 25.1997C116.603 24.6273 116.87 23.8672 116.87 22.9195V15.5441C116.87 15.1969 116.959 14.9295 117.138 14.7418C117.325 14.5447 117.593 14.4462 117.94 14.4462H119.615C119.962 14.4462 120.229 14.5447 120.417 14.7418C120.605 14.9295 120.699 15.1969 120.699 15.5441V25.5656C120.699 25.9316 120.825 26.1146 121.079 26.1146C121.163 26.1146 121.28 26.0958 121.43 26.0583C121.581 26.0114 121.693 25.9832 121.768 25.9738C122.2 25.8612 122.5 26.0724 122.669 26.6072L122.979 27.6206ZM134.689 27.2124C134.924 27.6629 134.76 28.0757 134.197 28.4511C133.333 29.0704 132.259 29.38 130.973 29.38C129.51 29.38 128.299 28.939 127.342 28.057C126.385 27.1749 125.906 25.8847 125.906 24.1863V17.3316H124.485C124.138 17.3316 123.861 17.2378 123.654 17.0501C123.457 16.8531 123.359 16.581 123.359 16.2338V15.5159C123.359 15.1781 123.457 14.9154 123.654 14.7277C123.861 14.5401 124.138 14.4462 124.485 14.4462H125.906V10.8148C125.906 10.2049 126.268 9.82955 126.99 9.68879L128.553 9.36506C128.928 9.28061 129.214 9.3463 129.411 9.56212C129.608 9.76855 129.707 10.0688 129.707 10.4629V14.4462H132.902C133.249 14.4462 133.521 14.5401 133.718 14.7277C133.925 14.9154 134.028 15.1781 134.028 15.5159V16.2338C134.028 16.581 133.925 16.8531 133.718 17.0501C133.521 17.2378 133.249 17.3316 132.902 17.3316H129.707V23.8344C129.707 25.317 130.34 26.0583 131.607 26.0583C131.963 26.0583 132.404 25.9128 132.93 25.6219C133.136 25.4718 133.319 25.4061 133.479 25.4249C133.648 25.4437 133.779 25.5 133.873 25.5938C133.976 25.6876 134.075 25.8237 134.169 26.002L134.689 27.2124ZM141.741 29.38C140.624 29.38 139.545 29.1783 138.504 28.7748C137.462 28.3713 136.636 27.8411 136.026 27.1843C135.463 26.6494 135.445 26.1099 135.97 25.5656L136.463 25.0167C136.96 24.4725 137.495 24.4443 138.067 24.9323C139.193 25.9175 140.404 26.4102 141.699 26.4102C142.318 26.4102 142.815 26.2835 143.191 26.0301C143.566 25.7674 143.754 25.4296 143.754 25.0167C143.754 24.8103 143.707 24.6226 143.613 24.4537C143.529 24.2848 143.43 24.144 143.317 24.0314C143.214 23.9188 143.041 23.7969 142.797 23.6655C142.562 23.5341 142.37 23.4356 142.22 23.3699C142.079 23.3042 141.849 23.2104 141.53 23.0884C141.408 23.0415 141.314 23.004 141.248 22.9758C140.817 22.8257 140.474 22.7084 140.221 22.6239C139.968 22.5301 139.644 22.3987 139.25 22.2298C138.865 22.0609 138.555 21.9014 138.321 21.7513C138.096 21.6011 137.842 21.4135 137.561 21.1883C137.279 20.9537 137.063 20.7144 136.913 20.4704C136.763 20.2264 136.636 19.9356 136.533 19.5978C136.43 19.2599 136.378 18.8987 136.378 18.514C136.378 17.2097 136.876 16.1681 137.87 15.3893C138.865 14.601 140.193 14.2069 141.854 14.2069C142.792 14.2069 143.702 14.3618 144.584 14.6714C145.476 14.9717 146.198 15.3846 146.752 15.91C147.033 16.154 147.183 16.398 147.202 16.642C147.221 16.8765 147.09 17.1815 146.808 17.5568L146.4 18.0776C145.931 18.6125 145.405 18.6594 144.823 18.2184C143.895 17.4677 142.905 17.0924 141.854 17.0924C141.3 17.0924 140.859 17.205 140.531 17.4302C140.202 17.646 140.038 17.9369 140.038 18.3028C140.038 18.406 140.052 18.5046 140.08 18.5984C140.108 18.6829 140.155 18.7673 140.221 18.8518C140.296 18.9362 140.362 19.0113 140.418 19.077C140.484 19.1427 140.582 19.213 140.714 19.2881C140.854 19.3632 140.972 19.4288 141.065 19.4851C141.159 19.5321 141.3 19.5931 141.488 19.6681C141.675 19.7432 141.825 19.8042 141.938 19.8511C142.051 19.898 142.224 19.9684 142.459 20.0622C142.703 20.1467 142.886 20.2124 143.008 20.2593C143.571 20.4845 144.04 20.6909 144.415 20.8786C144.791 21.0569 145.185 21.2868 145.598 21.5683C146.011 21.8498 146.334 22.1407 146.569 22.4409C146.813 22.7412 147.015 23.1072 147.174 23.5388C147.334 23.9705 147.413 24.4443 147.413 24.9604C147.413 26.321 146.893 27.4001 145.851 28.1977C144.819 28.9859 143.449 29.38 141.741 29.38Z" fill="black"></path>
    <path d="M0 23.9002V9.74148C0 6.22814 2.84581 3.39404 6.34744 3.39404H20.4945C27.9194 3.39404 33.9389 9.41357 33.9389 16.8384V30.9855C33.9389 34.4988 31.0931 37.3329 27.5915 37.3329H13.4444C6.01953 37.3446 0 31.3251 0 23.9002Z" fill="url(#paint0_linear_169_249)"></path>
    <path d="M21.6188 9.28467V17.2717C21.6188 19.2157 20.0495 20.785 18.1054 20.785H15.5173C13.7606 20.785 12.3318 22.2138 12.3318 23.9704" stroke="#F1F2F2" stroke-width="1.66629" stroke-miterlimit="10"></path>
    <path d="M19.9675 11.0179C19.8738 14.7655 19.3468 15.433 17.391 15.433H15.5173C12.812 15.433 10.6103 17.6347 10.6103 20.34V22.811C9.64998 22.2255 9.00587 21.1715 9.00587 19.9652V16.4753C9.00587 13.4655 11.4535 11.0179 14.4633 11.0179H19.9675V11.0179ZM21.7125 9.28467H14.4633C10.4932 9.28467 7.28433 12.5052 7.28433 16.4636V19.9535C7.28433 22.7408 9.54458 25.0127 12.3435 25.0127V20.34C12.3435 18.5833 13.7723 17.1546 15.529 17.1546H17.4028C21.7125 17.1546 21.7125 13.6295 21.7125 9.28467Z" fill="#F1F2F2"></path>
    <path d="M23.3403 17.2017C24.3006 17.7872 24.9447 18.8412 24.9447 20.0475V23.5374C24.9447 26.5472 22.4971 28.9948 19.4873 28.9948H14.0534V27.7768C14.0534 26.7931 14.8614 25.985 15.8452 25.985H18.4333C21.1386 25.985 23.3403 23.7833 23.3403 21.0781V17.2017ZM21.6188 14.9883V21.0664C21.6188 22.823 20.19 24.2518 18.4333 24.2518H15.8452C13.9011 24.2518 12.3318 25.8211 12.3318 27.7651V30.7046H19.4873C23.4574 30.7046 26.6663 27.4841 26.6663 23.5257V20.0358C26.678 17.2485 24.406 14.9883 21.6188 14.9883Z" fill="#F1F2F2"></path>
    <path d="M12.3318 23.9822V30.7161" stroke="#F1F2F2" stroke-width="1.66629" stroke-miterlimit="10"></path>
    <defs>
      <linearGradient id="paint0_linear_169_249" x1="-7.32181e-05" y1="20.3686" x2="33.9479" y2="20.3687" gradientUnits="userSpaceOnUse">
        <stop offset="0.00184478" stop-color="#00D95B"></stop>
        <stop offset="1" stop-color="#61C91E"></stop>
      </linearGradient>
    </defs>
  </symbol>
</svg>