<svg width="392" height="297" viewBox="0 0 392 297" fill="none" xmlns="http://www.w3.org/2000/svg">
<mask id="mask0_207_24777" style="mask-type:alpha" maskUnits="userSpaceOnUse" x="0" y="0" width="392" height="297">
<rect width="392" height="297" fill="#00C553"/>
</mask>
<g mask="url(#mask0_207_24777)">
<path d="M325.553 64.0151C324.448 63.8878 323.344 64.5774 323.036 65.6489C322.983 65.8293 323.026 65.9884 323.111 66.1051C323.026 66.2218 322.972 66.381 323.015 66.5613C323.217 67.6222 324.268 68.3967 325.33 68.3755C326.498 68.3543 327.337 67.3782 327.379 66.2536C327.411 65.1609 326.689 64.153 325.553 64.0151ZM326.243 66.2643C326.147 67.6116 324.332 67.4737 324.109 66.2749C324.098 66.2218 324.077 66.1688 324.056 66.1263C324.087 66.0839 324.119 66.0309 324.13 65.9672C324.47 64.7683 326.328 64.9275 326.243 66.2643Z" fill="#FE4040"/>
<path d="M289.649 47.0212C289.511 45.6102 289.383 44.1886 289.245 42.7775C289.49 42.3107 288.799 41.7272 288.3 42.141C288.247 42.1834 288.226 42.194 288.215 42.2152C286.984 43.2443 285.741 44.2734 284.509 45.3025C283.947 45.3344 283.766 46.2362 284.403 46.4165C285.911 46.8409 287.419 47.2653 288.927 47.7002C289.288 47.8063 289.543 47.5623 289.606 47.2759C289.649 47.2016 289.66 47.1167 289.649 47.0212ZM288.46 46.3847C287.599 46.1407 286.729 45.8967 285.869 45.6526C286.644 45.0055 287.43 44.3477 288.205 43.7005C288.29 44.5917 288.375 45.4935 288.46 46.3847Z" fill="#7665FF"/>
<path d="M218.345 49.253C218.133 48.4998 217.729 47.8632 217.156 47.3646C217.474 46.8553 217.804 46.3461 218.122 45.8368C218.515 45.2215 217.528 44.6486 217.145 45.2639C216.763 45.8581 216.391 46.4522 216.009 47.0569C215.967 47.0887 215.935 47.1312 215.903 47.1736C215.627 46.9508 215.351 46.728 215.075 46.5158C214.512 46.0596 213.694 46.8659 214.268 47.3221C214.607 47.598 214.958 47.8738 215.298 48.1391C214.894 48.7862 214.491 49.444 214.087 50.0912C213.705 50.7171 214.682 51.2794 215.064 50.6641C215.446 50.0699 215.818 49.4652 216.2 48.8711C216.593 49.1894 216.986 49.497 217.39 49.8153C217.814 50.1442 218.505 49.8471 218.345 49.253Z" fill="#40C9FF"/>
</g>
<g clip-path="url(#clip0_207_24777)">
<path opacity="0.25" d="M239.502 157.876C239.502 203.772 202.295 240.979 156.399 240.979C145.282 240.979 134.681 238.793 124.982 234.838C102.451 225.632 84.8746 206.826 77.3168 183.504C74.7023 175.43 73.2962 166.818 73.2962 157.876C73.2962 111.98 110.503 74.7731 156.399 74.7731C202.295 74.7731 239.502 111.98 239.502 157.876Z" fill="#00C553"/>
<path d="M161.419 90.7675C162.078 95.7438 160.98 100.94 158.19 105.147C156.004 108.432 152.906 111.046 149.336 112.683C148.413 113.243 147.435 113.727 146.414 114.111C145.941 116.813 145.469 119.505 144.996 122.207C144.876 122.899 144.755 123.591 144.634 124.283C144.557 124.723 140.766 136.494 140.392 136.791C139.645 137.395 141.183 134.805 140.842 134.091C140.82 134.036 140.787 133.981 140.765 133.926C140.403 133.926 136.735 143.855 138.142 133.191C137.978 129.731 123.582 142.621 121.494 139.94C117.957 135.392 129.013 106.41 126.772 100.951C125.102 96.8863 125.256 91.5365 128.596 88.3837C127.069 85.9121 126.805 82.8252 127.563 80.002C128.508 76.4868 130.979 73.5647 133.66 71.2029C138.581 66.8747 138.449 68.3468 144.996 71.2029C151.005 73.8174 152.091 73.7979 158.19 81.447C160.19 84.5966 161.881 87.6148 161.419 90.7675Z" fill="white"/>
<path d="M127.344 108.894L123.294 121.043" stroke="#0E2933" stroke-width="2"/>
<ellipse cx="130.225" cy="86.6239" rx="23.8473" ry="23.8473" transform="rotate(-28.1898 130.225 86.6239)" fill="#0E2933"/>
<path d="M164.399 66.3905C161.59 76.473 151.139 82.3691 141.057 79.5598C130.974 76.7505 125.078 66.2997 127.887 56.2173C130.697 46.1349 136.061 58.4946 146.143 61.3039C156.226 64.1131 167.208 56.3081 164.399 66.3905Z" fill="#0E2933"/>
<path d="M161.54 98.4571C161.43 98.8965 161.31 99.3359 161.178 99.7643C160.584 101.676 159.717 103.521 158.585 105.235C155.861 109.354 151.873 112.595 147.325 114.441C146.809 114.649 146.282 114.847 145.754 115.012C144.118 115.539 142.426 115.902 140.712 116.055C140.196 116.099 139.691 116.132 139.174 116.143C138.955 115.715 138.746 115.275 138.548 114.836C138.647 114.77 138.768 114.726 138.922 114.726C139.295 114.726 139.669 114.704 140.042 114.682C143.788 114.441 147.413 113.199 150.588 111.167C154.927 108.388 158.223 104.235 159.805 99.4458C159.958 98.9954 160.09 98.545 160.211 98.0836C160.617 96.5017 160.837 94.854 160.848 93.1732C160.903 86.4064 157.838 79.6285 152.565 75.3663C152.192 75.0697 151.818 74.784 151.423 74.5094C150.687 73.9931 151.39 72.7628 152.137 73.2901C152.236 73.356 152.324 73.4219 152.412 73.4878C155.839 75.9595 158.519 79.3539 160.2 83.2426C162.265 88.0651 162.771 93.4588 161.54 98.4571Z" fill="#0E2933"/>
<path d="M161.54 98.4571C161.43 98.8965 161.31 99.3359 161.178 99.7643C161.112 99.7753 161.046 99.7643 160.98 99.7533C160.574 99.6874 160.178 99.5886 159.794 99.4457C158.025 98.8196 156.542 97.5124 155.718 95.7987C155.323 94.9858 156.542 94.2607 156.937 95.0846C157.618 96.5017 158.761 97.5453 160.189 98.0726C160.563 98.2044 160.947 98.3143 161.353 98.3802C161.419 98.4131 161.485 98.4351 161.54 98.4571Z" fill="#0E2933"/>
<path d="M147.314 114.43C146.743 117.055 146.238 119.691 145.82 122.339C145.755 122.756 145.678 123.185 145.623 123.613C145.513 124.36 145.469 125.129 145.645 125.843C145.139 125.261 144.645 124.668 144.173 124.064C144.184 123.877 144.206 123.679 144.228 123.492C144.293 123.02 144.359 122.548 144.425 122.064C144.777 119.702 145.238 117.352 145.733 115.012C145.798 114.693 145.875 114.364 145.941 114.045C146.15 113.166 147.512 113.54 147.314 114.43Z" fill="#0E2933"/>
<path d="M178.655 158.052C178.326 158.052 178.062 157.788 178.062 157.459V68.8962C178.062 68.5666 178.326 68.303 178.655 68.303H304.073C304.402 68.303 304.666 68.5666 304.666 68.8962V157.459C304.666 157.788 304.402 158.052 304.073 158.052H178.655Z" fill="white"/>
<path d="M304.073 68.8962V157.459H178.655V68.8962H304.073ZM304.073 67.7098H178.655C177.996 67.7098 177.469 68.2371 177.469 68.8962V157.459C177.469 158.118 178.007 158.645 178.655 158.645H304.073C304.732 158.645 305.259 158.118 305.259 157.459V68.8962C305.259 68.2371 304.721 67.7098 304.073 67.7098Z" fill="black"/>
<path d="M301.277 77.8458H181.165V154.682H301.277V77.8458Z" fill="#0E2933"/>
<path d="M303.984 61.831C304.45 59.4771 304.917 57.1232 305.38 54.7826C305.508 54.1198 306.554 54.2633 306.427 54.9261C305.96 57.28 305.493 59.6339 305.03 61.9745C304.898 62.6288 303.856 62.4938 303.984 61.831Z" fill="#0E2933"/>
<path d="M308.823 64.6338C311.337 62.842 313.852 61.0503 316.367 59.2585C316.911 58.8652 317.555 59.7056 316.997 60.0953C314.483 61.8871 311.968 63.6788 309.453 65.4706C308.909 65.864 308.27 65.032 308.823 64.6338Z" fill="#0E2933"/>
<path d="M311.581 69.8046C313.809 69.6173 316.04 69.4166 318.268 69.2293C318.937 69.1713 319.074 70.2138 318.391 70.2683C316.164 70.4555 313.932 70.6562 311.705 70.8435C311.04 70.91 310.903 69.8675 311.581 69.8046Z" fill="#0E2933"/>
<path d="M249.469 145.84C232.225 146.783 243.082 128.744 244.679 125.797C239.889 111.06 234.345 132.071 231.948 134.811C228.857 138.344 223.124 147.019 218.334 147.019C216.786 147.019 213.948 146.826 210.997 146.597C204.819 146.117 199.131 149.234 196.179 154.682H302.161C299.366 151.145 284.916 151.971 280.605 145.84C275.216 138.176 271.025 144.661 249.469 145.84Z" fill="white"/>
<path opacity="0.35" d="M253.835 141.985C239.465 142.68 239.681 129.388 241.012 127.216C237.02 116.357 224.883 131.72 220.09 136.801C218.014 139.002 215.1 144.62 211.108 144.62C206.486 144.62 202.626 143.57 199.031 146.476L187.789 155.565L288.913 157.332C286.584 154.726 274.543 155.334 270.95 150.816C266.459 145.17 271.798 141.116 253.835 141.985Z" fill="white"/>
<path d="M247.404 149.019C235.039 149.383 239.897 136.577 239.897 136.577C239.897 136.577 231.065 132.943 231.065 134.811C231.065 136.22 225.766 148.383 221.238 149.019C215.479 149.827 209.771 150.09 204.919 153.294L201.478 155.566H296.42C282.731 155.566 275.953 143.225 272.254 144.668C261.093 149.019 258.44 148.693 247.404 149.019Z" fill="#FECA1E" fill-opacity="0.75"/>
<path d="M304.073 68.2921H178.655V74.9052H304.073V68.2921Z" fill="black"/>
<path d="M279.807 72.4115C279.543 73.3672 278.576 74.0373 277.599 73.7736C276.577 73.499 275.962 72.4225 276.193 71.4118C276.214 71.3239 276.247 71.258 276.28 71.2031C276.291 71.1372 276.313 71.0713 276.357 71.0054C276.841 70.2144 277.84 69.8849 278.719 70.1925C279.631 70.522 280.07 71.4887 279.807 72.4115Z" fill="#7665FF"/>
<path d="M290.803 73.0596C290.1 73.8615 288.727 73.8944 287.969 73.1475C287.167 72.3675 287.255 70.9614 288.089 70.2364C288.232 70.1155 288.397 70.0716 288.551 70.0826C289.166 69.786 289.913 69.797 290.506 70.2144C291.385 70.8625 291.528 72.2467 290.803 73.0596Z" fill="#FECA1E"/>
<path d="M300.492 73.3343C299.69 73.8945 298.58 73.7627 298.02 72.9278C297.526 72.1918 297.581 71.1702 298.207 70.5331C298.262 70.4781 298.317 70.4452 298.372 70.4122C298.416 70.3683 298.471 70.3134 298.536 70.2804C299.382 69.83 300.459 70.1046 301.008 70.8956C301.579 71.7195 301.283 72.785 300.492 73.3343Z" fill="#40C9FF"/>
<path d="M269.272 209.726H149.566L177.227 166.972H296.933L269.272 209.726Z" fill="#0E2933"/>
<path d="M296.998 166.236H295.889H177.842C176.897 166.236 176.897 167.697 177.842 167.697H294.977L268.47 209.759C269.195 209.77 269.887 209.605 270.502 209.287L296.713 167.697L297.515 166.422C297.383 166.312 297.218 166.236 296.998 166.236Z" fill="#40C9FF"/>
<path d="M257.595 205.112H164.649L170.24 196.478H263.175L257.595 205.112Z" fill="#FD4140"/>
<path d="M276.643 182.252C273.655 186.877 267.031 190.612 261.857 190.612C256.683 190.612 254.903 186.866 257.891 182.252C260.879 177.627 267.503 173.892 272.677 173.892C277.862 173.881 279.642 177.627 276.643 182.252Z" fill="#FECA1E"/>
<path d="M273.984 173.112C272.688 174.782 271.392 176.441 270.096 178.111C269.524 178.847 270.557 179.89 271.128 179.143C272.425 177.473 273.721 175.815 275.017 174.145C275.599 173.42 274.567 172.376 273.984 173.112Z" fill="white"/>
<path d="M180.193 188.349C178.699 190.656 175.393 192.534 172.8 192.534C170.208 192.534 169.329 190.667 170.823 188.349C172.317 186.042 175.623 184.164 178.216 184.164C180.797 184.164 181.687 186.042 180.193 188.349Z" fill="#FECA1E"/>
<path d="M188.245 175.892C186.751 178.198 183.445 180.077 180.852 180.077C178.26 180.077 177.381 178.209 178.875 175.892C180.369 173.585 183.675 171.706 186.268 171.706C188.849 171.717 189.739 173.585 188.245 175.892Z" fill="#7665FF"/>
<path d="M262.637 174.617C261.934 173.815 260.835 173.552 259.803 173.508C258.506 173.442 257.177 173.739 255.914 174.013C254.464 174.332 253.047 174.76 251.663 175.287C249.542 176.1 247.521 177.144 245.643 178.396C246.192 177.309 246.741 176.21 247.301 175.123C249.971 171.926 252.64 168.729 255.31 165.533C256.167 164.511 257.188 163.511 257.913 162.38C258.408 161.589 258.473 160.512 257.628 159.93C256.979 159.48 256.441 159.667 256.123 160.062C254.662 159.48 252.948 159.634 251.608 160.512C251.542 160.556 251.487 160.611 251.443 160.666C251.322 160.721 251.212 160.776 251.091 160.831C251.685 159.996 252.069 159.029 252.014 157.898C251.904 155.613 249.817 154.328 247.675 154.624C245.192 154.954 243.039 157.052 241.205 158.601C239.118 160.359 237.162 162.27 235.35 164.313C233.636 166.247 232.065 168.29 230.626 170.421C230.055 168.389 230.505 166.104 231.779 164.401C232.603 163.303 233.702 162.709 234.899 162.105C235.976 161.567 237.052 160.919 237.569 159.787C238.623 157.469 236.514 155.075 234.317 154.558C231.549 153.91 229.044 155.844 227.056 157.568C226.781 157.744 226.507 157.931 226.254 158.129C226.111 158.14 225.968 158.205 225.847 158.337C225.738 158.469 225.628 158.601 225.529 158.744C224.65 159.557 223.914 160.512 223.343 161.589C223.211 161.831 223.222 162.061 223.31 162.226C221.706 165.39 220.915 168.916 221.014 172.464C220.377 171.563 219.608 170.794 218.586 170.322C216.675 169.41 214.335 169.641 212.995 171.388C212.632 171.871 213.16 172.453 213.665 172.442C213.006 175.079 214.236 177.693 215.016 180.253C215.807 182.845 216.301 185.493 216.521 188.184C216.532 188.788 216.565 189.381 216.631 189.986C216.631 190.019 216.631 190.062 216.631 190.095C216.378 191.238 214.752 197.357 213.676 197.697C212.116 198.203 209.26 198.906 205.217 199.861C204.921 199.927 205.591 200.872 205.547 201.103C204.207 201.948 203.35 203.497 203.108 205.09C202.735 207.584 203.306 210.418 203.91 212.857C204.448 215.054 205.448 217.207 207.37 218.503C207.579 218.646 207.799 218.778 208.018 218.888C207.634 219.195 207.261 219.503 206.898 219.843C206.393 220.316 206.92 221.249 207.59 221.03C215.28 218.536 222.958 216.042 230.648 213.538C231.098 213.395 231.219 212.956 231.098 212.604C234.647 211.429 238.118 209.693 240.612 206.859C243.171 203.959 244.401 200.268 245.39 196.599C246.379 192.93 247.192 189.118 249.103 185.822C249.301 185.866 249.51 185.811 249.696 185.603C250.927 184.174 252.157 182.735 253.376 181.307C254.134 180.945 254.914 180.648 255.727 180.428C258.166 179.791 261.538 180.308 262.922 177.682C263.439 176.683 263.395 175.474 262.637 174.617Z" fill="white"/>
<path d="M263.472 174.497C262.571 173.288 261.11 172.816 259.66 172.673C256.562 172.354 253.321 173.123 250.52 174.431C249.685 174.815 248.894 175.266 248.125 175.782C249.542 173.706 251.08 171.717 252.772 169.861C254.09 168.4 255.573 167.115 256.903 165.675C258.023 164.478 259.067 162.907 258.66 161.183C258.32 159.743 257.012 158.744 255.617 158.414C254.552 158.162 253.475 158.304 252.476 158.667C252.75 157.283 252.223 155.734 251.014 154.822C248.587 152.999 245.379 154.031 243.149 155.624C241.765 156.613 240.436 157.711 239.161 158.876C239.161 157.7 238.7 156.525 237.942 155.646C235.459 152.79 230.868 153.614 228.001 155.327C224.947 157.162 222.783 160.227 221.552 163.522C220.728 165.719 220.322 168.015 220.124 170.344C219.212 169.29 218.004 168.554 216.466 168.488C213.654 168.367 212.061 170.948 212.292 173.519C212.424 175.035 213.061 176.408 213.61 177.792C214.236 179.352 214.697 180.978 214.994 182.637C215.576 185.932 215.423 189.338 214.621 192.578C214.588 192.71 214.588 192.831 214.621 192.93C213.841 194.654 213.028 196.357 212.171 198.049C212.149 198.093 212.138 198.137 212.116 198.181C201.537 199.762 190.948 201.344 180.369 202.926C179.259 203.091 178.15 203.256 177.04 203.421C176.14 203.552 176.524 204.915 177.414 204.783C178.556 204.618 179.688 204.442 180.83 204.277C186.345 203.453 191.859 202.63 197.385 201.806C200.142 201.388 202.899 200.982 205.657 200.564C207.041 200.356 208.414 200.147 209.798 199.949C210.754 199.806 212.369 199.894 213.105 199.147C214.17 198.06 214.752 196.017 215.39 194.654C216.17 192.974 216.916 191.271 217.62 189.568C219.037 186.141 220.311 182.659 221.442 179.132C221.519 178.913 221.475 178.715 221.376 178.572C221.42 178.484 221.453 178.374 221.442 178.242C221.42 176.979 221.398 175.661 221.409 174.343C221.42 173.728 221.431 173.101 221.453 172.475C221.684 166.84 222.848 161.172 227.407 157.459C229.769 155.536 234.57 153.746 236.942 156.635C237.953 157.865 238.118 159.875 236.734 160.886C235.481 161.798 233.834 161.94 232.559 162.841C230.176 164.533 229 167.686 229.659 170.52C227.957 173.244 226.496 176.1 225.254 179.055C224.903 179.89 226.276 180.264 226.616 179.429C227.715 176.814 229.011 174.288 230.483 171.86C230.714 171.487 230.945 171.102 231.186 170.729C232.296 168.993 233.504 167.312 234.811 165.708C236.47 163.665 238.272 161.732 240.194 159.93C242.062 158.184 244.226 155.954 246.796 155.36C248.081 155.064 249.718 155.251 250.608 156.327C251.322 157.206 251.432 158.777 250.443 159.502C250.311 159.601 250.235 159.71 250.191 159.831C247.093 161.853 244.357 164.643 241.886 167.334C238.799 170.696 236.031 174.321 233.262 177.935C232.713 178.66 233.944 179.363 234.482 178.649C238.854 172.937 243.303 167.158 248.905 162.589C250.257 161.479 251.75 160.227 253.475 159.787C254.804 159.447 256.738 159.798 257.243 161.292C257.803 162.962 256.09 164.511 255.013 165.533C253.706 166.774 252.454 168.048 251.267 169.399C248.708 172.3 246.467 175.474 244.544 178.836C243.863 179.594 243.226 180.407 242.677 181.274C242.182 182.043 243.402 182.746 243.896 181.988C244.314 181.329 244.786 180.714 245.302 180.121C245.423 180.066 245.533 179.967 245.61 179.824C245.643 179.769 245.676 179.725 245.698 179.671C248.839 176.265 253.343 174.145 258.001 174.024C259.396 173.991 261.187 174.013 262.197 175.156C263.23 176.32 262.736 177.649 261.374 178.166C260.198 178.605 258.913 178.649 257.715 179C256.353 179.396 255.079 180.066 253.926 180.879C251.179 182.834 248.62 185.811 247.038 188.788C245.797 191.128 245.324 194.039 244.588 196.588C243.094 201.773 241.084 207.265 236.064 210.001C235.954 210.067 235.866 210.143 235.811 210.231C218.334 218.294 199.703 223.425 181.028 227.841C180.259 228.027 179.49 228.203 178.721 228.379C174.228 229.422 169.735 230.444 165.242 231.466C164.792 231.565 164.671 231.971 164.77 232.312C165.484 232.432 166.198 232.509 166.901 232.542C169.779 231.894 172.657 231.235 175.524 230.576C191.112 226.984 206.656 223.106 221.684 217.58C226.792 215.702 231.834 213.626 236.778 211.341C236.931 211.264 237.03 211.165 237.096 211.044C242.182 208.111 244.281 202.476 245.884 197.104C247.741 190.908 249.751 184.856 255.76 181.384C257.21 180.549 258.704 180.209 260.319 179.89C261.549 179.649 262.9 179.286 263.669 178.221C264.482 177.089 264.296 175.595 263.472 174.497ZM219.828 179.077C219.52 181.143 218.608 183.153 217.872 185.108C217.499 186.097 217.114 187.086 216.708 188.074C216.895 184.361 216.279 180.637 214.862 177.144C214.082 175.211 212.5 171.509 215.115 170.179C217.257 169.081 219.059 170.904 220.003 172.75C219.948 174.749 220.135 177.012 219.828 179.077ZM230.901 168.63C230.934 167.796 231.153 166.972 231.538 166.192C232.307 164.654 233.515 163.808 235.031 163.204C233.537 164.95 232.164 166.774 230.901 168.63Z" fill="black"/>
<path d="M213.676 211.56C213.324 204.343 204.965 199.268 204.965 199.268L180.38 202.41C174.58 182.735 164.056 155.327 160.255 147.308C151.741 129.347 122.844 119.243 122.844 119.243C122.844 119.243 105.823 130.303 95.0579 147.868C91.4218 153.8 84.4023 168.246 77.3168 183.504C84.8636 206.826 102.451 225.632 124.982 234.838L133.396 214.285C136.494 213.736 139.438 212.494 142.107 210.802C142.503 210.55 142.898 210.286 143.294 210.012C144.964 214.625 145.051 214.911 149.907 222.194C154.883 229.675 162.353 234.278 171.625 232.718C179.468 231.949 211.995 220.92 211.995 220.92C211.995 220.92 214.027 218.778 213.676 211.56Z" fill="#00C553"/>
<path d="M137.395 103.598C135.857 105.367 133.275 105.696 131.342 104.356C129.156 102.84 128.705 100.028 129.694 97.6661C130.046 96.8313 128.673 96.4578 128.332 97.2926C127.102 100.248 127.937 103.752 130.628 105.586C133.067 107.245 136.45 106.839 138.394 104.609C138.988 103.906 137.988 102.906 137.395 103.598Z" fill="#0E2933"/>
<path d="M138.241 98.6108C136.813 98.468 135.374 98.3362 133.945 98.1934C133.045 98.1055 133.045 99.5226 133.945 99.6105C135.374 99.7533 136.813 99.8851 138.241 100.028C139.141 100.116 139.13 98.6987 138.241 98.6108Z" fill="#0E2933"/>
<path d="M136.813 98.468C136.516 98.2922 136 98.3691 135.846 98.7207C135.494 99.5555 135.264 100.401 135.143 101.302C135.088 101.687 135.505 102.005 135.846 102.005C136.274 102.005 136.505 101.676 136.549 101.302C136.637 100.665 136.813 100.028 137.054 99.4347C137.219 99.0832 137.175 98.6767 136.813 98.468Z" fill="#0E2933"/>
<path d="M153.169 71.4335C152.917 70.5657 151.544 70.9282 151.807 71.807C153.4 77.1788 152.653 83.0998 149.863 87.9552C147.04 92.8656 142.184 96.2381 136.681 97.4464C133.572 98.1275 130.331 98.0836 127.244 97.2927C126.366 97.062 125.981 98.4351 126.871 98.6548C132.704 100.16 139.054 99.1162 144.14 95.9085C149.215 92.7008 152.664 87.373 153.708 81.474C154.29 78.1345 154.136 74.6961 153.169 71.4335Z" fill="#0E2933"/>
<path d="M143.305 210.012C142.92 210.286 142.525 210.55 142.118 210.803C137.164 200.191 132.528 189.425 128.255 178.517C127.926 177.671 129.277 177.243 129.606 178.089C133.836 188.865 138.405 199.521 143.305 210.012Z" fill="white"/>
<path d="M219.174 121.667C222.095 114.982 227.085 111.858 227.085 111.858L228.585 129.84C220.958 128.644 217.688 134.209 217.688 134.209C217.688 134.209 216.18 128.519 219.174 121.667Z" fill="#FD4140" stroke="#0E2933" stroke-width="1.5" stroke-miterlimit="10"/>
<path d="M242.944 131.818C242.944 131.818 250.606 133.227 252.415 139.173C252.415 139.173 259.979 127.652 250.029 115.043C250.029 115.043 248.688 119.666 246.436 124.836C244.215 129.939 242.944 131.818 242.944 131.818Z" fill="#FD4140" stroke="#0E2933" stroke-width="1.5" stroke-miterlimit="10"/>
<path d="M253.988 100.698C254.631 97.6356 255.253 94.3855 255.835 90.9446C257.021 83.9507 256.597 77.9222 255.453 72.9408C252.217 75.0191 248.253 75.9673 244.171 75.3273C240.151 74.6969 236.71 72.6337 234.274 69.7354C231.834 74.2269 229.729 79.7087 228.428 86.0699C225.538 100.207 227.342 122.056 228.5 129.671C228.682 130.865 228.848 131.708 228.975 132.121L230.205 132.313L241.382 134.066L242.78 134.285C243.154 133.654 243.542 132.956 243.936 132.193C246.116 127.972 248.572 121.702 250.917 113.323L253.988 100.698Z" fill="white" stroke="#0E2933" stroke-width="1.5" stroke-miterlimit="10" stroke-linecap="round" stroke-linejoin="round"/>
<path d="M255.45 72.9403C252.945 62.0259 246.992 56.1317 246.992 56.1317C243.255 57.6005 238.306 62.3104 234.271 69.7377C236.707 72.636 240.147 74.6992 244.168 75.3296C248.253 75.9673 252.217 75.019 255.45 72.9403Z" fill="#FECA1E" stroke="#0E2933" stroke-width="1.5" stroke-miterlimit="10"/>
<path d="M243.936 132.193C243.541 132.959 243.157 133.655 242.78 134.285L241.382 134.066L230.205 132.314L228.975 132.121C228.845 131.711 228.679 130.865 228.5 129.671L243.935 132.091L243.936 132.193Z" fill="#FECA1E" stroke="#0E2933" stroke-width="1.5" stroke-miterlimit="10" stroke-linecap="round" stroke-linejoin="round"/>
<path d="M241.382 134.066L230.205 132.314L230.984 135.183L239.95 136.589C239.95 136.589 241.382 134.069 241.382 134.066Z" fill="#0E2933"/>
<path d="M239.299 113.083C238.19 113.599 233.281 128.297 235.773 136.009C235.773 136.009 237.941 131.792 238.873 124.548C239.803 117.306 239.299 113.083 239.299 113.083Z" fill="#FECA1E" stroke="#0E2933" stroke-width="1.5" stroke-miterlimit="10"/>
<path d="M241.291 93.6941C245.355 94.3313 249.17 91.5289 249.812 87.4348C250.454 83.3406 247.68 79.505 243.616 78.8678C239.552 78.2306 235.737 81.033 235.095 85.1271C234.453 89.2213 237.227 93.0568 241.291 93.6941Z" stroke="#0E2933" stroke-width="1.5" stroke-miterlimit="10"/>
<path d="M241.587 91.2039C244.275 91.6254 246.798 89.7717 247.223 87.0635C247.648 84.3553 245.813 81.8182 243.125 81.3966C240.436 80.9751 237.913 82.8288 237.488 85.537C237.064 88.2452 238.899 90.7823 241.587 91.2039Z" fill="#0E2933" stroke="#0E2933" stroke-width="1.5" stroke-miterlimit="10"/>
<path d="M318.96 80.927C317.877 79.6857 315.7 79.6857 314.638 80.9588C314.065 81.6485 313.927 82.5502 314.129 83.3778C314.001 83.5369 313.948 83.7597 314.065 83.9931C314.819 85.5208 316.932 86.1892 318.376 85.2026C319.735 84.2902 320.054 82.1683 318.96 80.927ZM317.665 84.322C317.261 84.566 316.804 84.5978 316.38 84.4917C316.337 84.4069 316.263 84.322 316.146 84.2689C315.254 83.8127 314.829 82.5396 315.498 81.7121C316.135 80.9164 317.569 80.9482 318.185 81.7545C318.769 82.529 318.482 83.834 317.665 84.322Z" fill="#FFCF34"/>
<path d="M313.534 174.014C311.293 174.459 309.17 175.34 307.269 176.602C306.834 176.9 306.961 177.451 307.407 177.642C309.34 178.449 311.272 179.265 313.205 180.072C313.545 180.21 313.937 179.86 313.927 179.52C313.863 178.109 313.789 176.698 313.725 175.287C313.725 175.234 313.714 175.181 313.693 175.138C313.736 175.128 313.789 175.117 313.831 175.107C314.553 174.958 314.256 173.865 313.534 174.014ZM312.748 178.661C311.431 178.109 310.104 177.557 308.787 176.995C309.987 176.305 311.262 175.775 312.599 175.404C312.642 176.486 312.695 177.568 312.748 178.661Z" fill="#FFCF34"/>
</g>
<defs>
<clipPath id="clip0_207_24777">
<rect width="247.661" height="189" fill="white" transform="translate(72 54)"/>
</clipPath>
</defs>
</svg>
