<svg width="392" height="297" viewBox="0 0 392 297" fill="none" xmlns="http://www.w3.org/2000/svg">
<path d="M109.314 144.825C109.314 154.522 110.992 163.827 114.061 172.462C120.209 189.745 131.964 204.386 147.138 214.178C147.425 214.369 147.722 214.549 148.009 214.73C149.91 215.918 151.853 217.043 153.85 218.072C154.189 218.252 154.529 218.422 154.869 218.592C166.008 224.183 178.591 227.334 191.907 227.334C199.054 227.334 205.998 226.432 212.614 224.724C248.208 215.547 274.51 183.252 274.51 144.815C274.51 134.831 272.737 125.251 269.477 116.393C269.35 116.032 269.212 115.682 269.074 115.321C267.311 110.727 265.155 106.324 262.628 102.165C261.609 103.831 260.579 105.486 259.559 107.152C257.478 110.536 255.386 113.91 253.294 117.284C253.092 117.602 252.901 117.931 252.699 118.249C246.721 127.893 240.722 137.516 234.69 147.117C234.52 147.382 234.361 147.647 234.191 147.913C234.01 147.838 233.83 147.753 233.649 147.679C233.416 147.584 233.193 147.488 232.959 147.403C231.154 146.703 229.349 146.12 227.597 145.632C228.043 144.963 228.478 144.305 228.924 143.637C229.126 143.329 229.338 143.022 229.54 142.703C231.196 140.221 232.853 137.728 234.499 135.245C234.807 134.789 235.104 134.333 235.412 133.877C235.433 133.845 235.455 133.813 235.476 133.77C237.228 131.139 238.98 128.508 240.732 125.877C241.263 125.081 241.794 124.286 242.314 123.501C244.013 120.944 245.712 118.387 247.422 115.841C247.634 115.523 247.847 115.204 248.059 114.886C249.482 112.754 250.894 110.632 252.317 108.499C254.749 104.839 257.181 101.189 259.623 97.5292C257.127 93.9751 254.367 90.6226 251.361 87.5035C250.831 86.9518 250.278 86.4001 249.737 85.859C234.839 71.2713 214.44 62.2747 191.928 62.2747C176.244 62.2747 161.591 66.6351 149.103 74.2207C148.784 74.4117 148.466 74.6132 148.147 74.8148C146.416 75.897 144.728 77.0428 143.082 78.2522C142.041 79.0161 141.011 79.8012 140.013 80.6181C139.291 81.2016 138.569 81.7957 137.868 82.411C137.008 83.1537 136.159 83.9176 135.33 84.7026C128.885 90.7605 123.416 97.8475 119.179 105.698C118.999 106.038 118.818 106.377 118.638 106.727C112.67 118.143 109.314 131.086 109.314 144.825Z" fill="#00C553" fill-opacity="0.15"/>
<g opacity="0.26">
<g opacity="0.26">
<path opacity="0.26" d="M203.471 112.987C203.482 112.244 204.554 112.265 204.607 112.987C204.926 116.987 205.488 122.418 210.033 123.787C211.732 124.307 213.739 124.084 214.812 122.535C213.24 118.631 213.219 114.239 213.856 110.122C213.952 109.496 215.035 109.634 214.971 110.271C214.737 112.658 215.661 114.928 216.224 117.199C216.659 118.97 216.925 120.923 216.086 122.588C217.318 125.41 219.399 127.712 222.67 128.816C224.124 129.304 225.728 129.495 227.246 129.293C226.556 127.394 226.099 125.389 225.685 123.416C224.528 117.846 224.199 112.117 224.687 106.441C224.73 105.953 225.282 105.688 225.654 106.038C228.892 109.04 232.269 112.202 233.915 116.392C235.274 119.84 235.274 124.18 232.959 127.235C231.865 128.667 230.389 129.612 228.765 130.089C229.052 130.747 229.381 131.373 229.795 131.967C230.761 133.367 232.269 134.396 234.042 134.184C234.541 134.131 235.009 133.983 235.455 133.77C236.708 133.176 237.738 132.073 238.502 130.98C239.543 129.463 240.265 127.712 240.711 125.888C241.178 124.01 241.359 122.047 241.306 120.18C241.21 116.286 240.042 112.456 237.918 109.199C237.663 108.86 237.419 108.51 237.185 108.138C236.793 107.502 237.738 106.993 238.162 107.565C238.396 107.873 238.619 108.202 238.831 108.52C241.136 111.533 244.565 113.326 248.027 114.896C249.206 115.438 250.395 115.947 251.542 116.467C252.105 116.721 252.689 116.997 253.262 117.284C255.79 118.535 258.37 120.106 260.249 122.196C260.377 122.217 260.494 122.238 260.61 122.27C261.917 119.862 263.732 117.793 266.228 116.424C267.109 115.947 268.054 115.565 269.031 115.321C269.169 115.671 269.307 116.032 269.435 116.392C269.403 116.403 269.36 116.403 269.328 116.414C265.899 117.262 263.414 119.66 261.747 122.588C265.654 123.893 268.808 127.415 269.934 131.33C270.677 133.887 270.55 136.858 268.872 139.033C267.46 140.857 265.092 142.046 262.755 141.611C260.302 141.154 258.954 139.351 258.306 137.187C254.101 138.693 249.801 134.937 249.461 130.672C249.068 125.803 253.974 122.068 258.508 122.058C256.809 120.488 254.685 119.268 252.646 118.26C252.211 118.047 251.765 117.835 251.34 117.634C250.034 117.029 248.696 116.456 247.369 115.851C245.001 114.78 242.686 113.613 240.658 112C241.603 114.239 242.176 116.647 242.357 119.077C242.463 120.519 242.442 122.026 242.261 123.511C241.953 126.121 241.178 128.71 239.861 130.916C238.683 132.9 236.665 134.789 234.446 135.245C233.203 135.5 231.887 135.309 230.623 134.428C229.2 133.441 228.298 131.924 227.629 130.354C226.376 130.566 225.059 130.535 223.785 130.291C220.089 129.569 217.052 127.14 215.353 123.808C215.332 123.766 215.311 123.713 215.29 123.67C214.047 124.997 212.178 125.378 210.394 125.039C208.228 124.636 206.444 123.246 205.361 121.358C204.968 120.679 204.671 119.978 204.437 119.246C204.405 120.732 204.374 122.217 204.352 123.692C204.342 124.424 203.205 124.424 203.216 123.692L203.471 112.987ZM260.897 139.383C262.501 140.942 264.837 140.836 266.621 139.659C268.734 138.258 269.498 135.754 269.233 133.325C268.776 129.06 265.516 125.05 261.428 123.681C261.948 124.477 262.373 125.336 262.67 126.27C263.796 129.824 262.798 134.736 259.379 136.72C259.676 137.717 260.143 138.661 260.897 139.383ZM258.965 134.099C258.986 134.566 259.028 135.054 259.113 135.532C261.906 133.611 262.554 129.357 261.492 126.323C261.29 125.76 261.046 125.23 260.748 124.731C260.398 125.591 260.101 126.471 259.857 127.352C259.272 129.537 258.858 131.829 258.965 134.099ZM250.639 129.813C250.406 133.632 254.324 137.579 258.094 136.083C257.743 134.248 257.796 132.285 258.03 130.694C258.38 128.307 258.996 125.856 260.005 123.617C259.92 123.501 259.825 123.395 259.74 123.278C255.694 122.769 250.905 125.453 250.639 129.813ZM227.756 127.033C227.947 127.712 228.149 128.402 228.393 129.07C229.519 128.752 230.57 128.19 231.441 127.32C233.989 124.784 234.18 120.753 233.129 117.496C231.855 113.528 228.754 110.472 225.76 107.672C225.484 111.905 225.643 116.159 226.301 120.35C226.652 122.599 227.14 124.837 227.756 127.033ZM215.47 120.859C215.661 119.596 215.332 118.238 215.014 117.018C214.897 116.583 214.769 116.148 214.652 115.703C214.716 117.464 214.971 119.214 215.47 120.859Z" fill="#7665FF"/>
</g>
<g opacity="0.26">
<path opacity="0.26" d="M148.126 74.8359C148.54 75.4618 148.922 76.1196 149.294 76.7667C151.184 80.1087 154.242 84.9465 158.851 83.5991C160.847 83.0156 162.345 81.3181 163.12 79.4403C163.98 77.3715 163.98 75.0905 163.842 72.8731C165.35 74.2736 166.22 76.2575 166.974 78.1566C168.418 81.8167 170.436 86.6121 175.108 86.697C176.829 86.7288 178.347 85.8058 179.112 84.2569C179.324 83.8325 179.462 83.3869 179.526 82.9307C180.949 85.3709 181.203 88.4688 179.993 91.0786C179.887 91.312 179.94 91.5242 180.057 91.6834C179.759 91.8849 179.441 92.0335 179.08 92.1077C177.933 92.3411 176.276 91.7364 176.404 90.3572C176.478 89.6252 175.342 89.6358 175.268 90.3572C175.108 91.9486 176.552 93.0307 177.997 93.2429C179.781 93.5082 181.203 92.426 182.202 91.0468C183.688 89.0204 185.43 83.6946 188.913 85.53C190.028 86.1135 190.803 87.2381 191.536 88.2247C192.311 89.2857 193.075 90.3996 194.073 91.2696C195.114 92.1926 196.42 92.7973 197.843 92.7019C199.446 92.5852 200.933 91.7258 202.006 90.5588C204.352 87.9913 204.299 84.4372 203.906 81.1484L211.785 88.6173C213.123 89.8798 214.461 91.1529 215.799 92.426C217.021 93.5824 218.199 94.8555 219.537 95.8846C220.546 96.6591 221.884 97.3805 223.19 96.988C224.284 96.6591 224.963 95.7255 225.101 94.6221C225.144 94.2932 225.144 93.9537 225.123 93.6143C226.567 94.0917 228.298 93.9856 229.423 92.9353C230.283 92.129 230.496 90.9407 230.305 89.8161C230.028 88.1823 229.253 86.5803 228.68 85.0207C227.968 83.0686 227.257 81.1165 226.535 79.1644C229.179 82.9201 231.823 86.6652 234.456 90.4209C237.547 94.8131 240.637 99.2053 243.737 103.598C244.852 105.178 246.169 106.908 248.08 107.565C249.705 108.117 251.425 107.481 252.381 106.091C253.315 104.733 253.528 102.908 253.507 101.295C253.475 98.9613 253.135 96.5848 252.774 94.2826C252.413 92.0016 251.946 89.7419 251.362 87.5139C250.831 86.9622 250.278 86.4106 249.737 85.8695C250.629 88.9356 251.308 92.0653 251.776 95.2375C252.094 97.3699 252.413 99.5873 252.37 101.741C252.338 103.184 252.115 104.977 250.969 105.995C249.397 107.396 247.433 106.186 246.233 104.934C244.672 103.301 243.482 101.274 242.187 99.4387C236.463 91.312 230.74 83.1853 225.016 75.0586C224.666 74.5706 223.742 74.8571 223.976 75.4936C225.208 78.8568 226.439 82.2305 227.671 85.5936C228.191 87.0259 228.935 88.5324 229.179 90.0495C229.359 91.1953 228.945 92.2244 227.809 92.5958C226.737 92.9459 225.707 92.7549 224.847 92.2457C224.751 91.9168 224.634 91.5985 224.496 91.2908C223.88 89.8161 223.073 88.3945 222.266 87.0153C222.054 86.6546 221.841 86.2939 221.618 85.9331C221.395 84.9783 221.162 84.0447 220.78 83.1429C219.973 81.212 218.571 79.3766 216.405 78.9522C215.831 78.8355 215.481 79.4615 215.852 79.9071C217.583 81.9547 219.165 84.1402 220.567 86.4212C220.588 86.4954 220.599 86.5803 220.62 86.6546C221.151 88.925 221.799 91.6728 223.88 93.0413C224.018 93.6355 224.061 94.2402 223.901 94.8025C223.519 96.1605 222.075 96.118 221.034 95.5345C219.771 94.8343 218.762 93.6885 217.711 92.7019L203.513 79.2387C203.067 78.8143 202.483 79.2599 202.568 79.7904C203.121 83.6097 203.662 88.6703 199.733 90.9407C194.18 94.1659 192.82 85.0844 188.403 84.1508C185.207 83.4824 183.444 86.6334 182.149 88.9674C181.968 89.2857 181.777 89.6358 181.554 89.9859C182.467 86.4742 181.405 82.5382 178.655 80.0662C178.113 79.5782 177.349 80.3315 177.848 80.8725C179.112 82.1987 178.145 84.4478 176.701 85.2117C174.567 86.3257 171.986 84.7343 170.67 83.0686C167.75 79.3554 167.707 73.9022 163.481 71.1438C163.13 70.921 162.589 71.2075 162.621 71.6319C162.812 74.2842 163.077 77.2335 161.761 79.6631C160.815 81.4136 159.085 82.8352 157.003 82.6337C154.954 82.4427 153.308 80.8195 152.161 79.2493C151.025 77.7004 150.165 75.8756 149.103 74.2311C148.763 74.4433 148.445 74.6343 148.126 74.8359Z" fill="#7665FF"/>
</g>
<g opacity="0.26">
<path opacity="0.26" d="M135.309 84.7237C136.721 84.3736 138.07 83.7265 139.259 82.8247C140.895 81.594 142.137 80.0238 143.061 78.2627C142.02 79.0266 140.99 79.8116 139.992 80.6286C139.344 81.3076 138.633 81.9229 137.847 82.4215C136.987 83.1748 136.137 83.9387 135.309 84.7237Z" fill="#7665FF"/>
</g>
<g opacity="0.26">
<path opacity="0.26" d="M192.056 204.863C192.481 204.28 193.468 204.842 193.033 205.436C191.79 207.144 191.939 209.34 192.927 211.144C194.042 213.159 196.006 214.39 198.31 214.528C203.917 214.868 207.941 210.199 210.352 205.722C211 204.524 211.584 203.293 212.157 202.062C212.433 201.468 212.603 201.235 213.272 201.139C213.75 201.065 214.249 201.107 214.706 201.266C216.67 201.945 217.796 204.184 218.433 206.009C219.049 207.781 219.803 210.528 221.873 211.133C224.475 211.886 225.229 208.088 225.505 206.338C225.59 205.807 225.654 205.277 225.696 204.746C223.264 201.511 222.192 197.299 221.597 193.331C221.385 191.952 221.226 190.562 221.066 189.183C220.992 188.546 221.831 188.514 222.128 188.896C225.505 193.288 227.193 198.901 226.853 204.417C227.14 204.768 227.448 205.107 227.777 205.436C231.037 208.651 236.973 210.412 240.668 206.868C245.224 202.497 243.026 195.516 240.722 190.636C237.748 184.345 234.605 178.128 231.547 171.889C228.457 165.577 225.356 159.264 222.266 152.952C221.502 151.382 220.726 149.822 219.962 148.252C219.388 147.085 218.858 145.876 218.656 144.581C218.284 142.184 219.537 139.903 222.107 139.68C224.666 139.457 227.076 140.995 229.094 142.374C229.243 142.481 229.402 142.587 229.551 142.693C231.398 144.008 233.129 145.483 234.701 147.106C234.934 147.35 235.157 147.584 235.391 147.838C237.27 149.886 238.927 152.156 240.297 154.575C241.401 156.517 242.612 160.58 245.596 159.774C248.367 159.02 249.397 155.838 250.809 153.684C252.094 151.732 254.059 150.13 256.533 150.618C258.869 151.085 260.664 153.228 261.333 155.413C262.161 158.119 261.141 161.026 259.793 163.381C259.05 164.686 258.158 165.906 257.266 167.115C256.841 167.699 255.853 167.136 256.289 166.542C258.041 164.166 259.92 161.609 260.398 158.617C260.812 156.007 259.591 153.047 257.053 151.955C254.356 150.798 252.413 153.111 251.202 155.201C249.939 157.397 248.686 159.933 246.095 160.792C243.408 161.683 241.592 159.53 240.499 157.387C239.192 154.83 237.748 152.4 235.933 150.183C235.221 149.313 234.467 148.464 233.671 147.669C232.471 146.448 231.186 145.313 229.816 144.284C229.529 144.072 229.243 143.849 228.935 143.626C227.119 142.279 225.006 140.889 222.765 140.794C221.555 140.741 220.376 141.239 219.909 142.438C219.431 143.679 219.877 145.143 220.334 146.321C220.928 147.828 221.725 149.271 222.436 150.724L224.74 155.424C227.809 161.694 230.889 167.964 233.957 174.234L238.566 183.634C240.01 186.583 241.56 189.501 242.803 192.546C244.778 197.352 245.617 203.791 241.401 207.738C237.844 211.069 232.375 210.253 228.659 207.632C227.937 207.123 227.299 206.561 226.715 205.945C226.407 208.279 225.813 211.674 223.105 212.268C220.588 212.82 218.889 210.263 218.04 208.279C217.477 206.942 217.169 205.542 216.394 204.28C215.714 203.166 214.674 202.03 213.293 202.285C211.074 207.059 208.526 212.236 203.503 214.571C201.262 215.61 198.671 216.045 196.271 215.303C194.275 214.687 192.629 213.191 191.737 211.313C190.771 209.255 190.675 206.773 192.056 204.863ZM222.457 191.4C222.946 195.347 223.689 199.537 225.76 202.911C225.728 198.869 224.57 194.848 222.457 191.4Z" fill="#7665FF"/>
</g>
</g>
<path d="M196.909 154.554C204.586 140.783 212.805 125.718 210.426 109.38C209.81 105.136 208.409 101.009 206.179 97.3382C205.796 96.7122 206.763 96.1181 207.145 96.744C211.212 103.407 212.465 111.374 211.807 119.066C211.106 127.214 208.271 134.969 204.735 142.29C202.632 146.65 200.275 150.883 197.917 155.106C197.546 155.742 196.558 155.19 196.909 154.554Z" fill="black"/>
<path d="M82.0029 201.023C82.0667 201.097 82.1304 201.161 82.1941 201.235C83.8612 202.985 86.3142 203.749 88.7034 203.654C93.9278 203.442 97.7612 199.357 100.883 195.612C104.281 191.527 108.252 186.499 114.125 186.647C114.847 186.668 114.857 185.565 114.157 185.512C116.004 185.385 117.873 185.544 119.689 185.989C120.4 186.159 120.698 185.066 119.997 184.897C116.96 184.154 113.764 184.154 110.727 184.918C107.976 185.607 105.513 186.944 103.294 188.684C100.979 190.509 98.9717 192.684 96.763 194.625C94.6074 196.524 92.1651 198.285 89.3299 198.964C86.8026 199.569 83.9568 199.283 81.8861 197.617C81.9392 198.105 81.9923 198.604 82.0454 199.092C84.1373 200.354 86.6752 200.63 89.0963 200.174C94.9685 199.06 98.8443 193.946 103.145 190.286C104.929 188.758 106.872 187.506 109.038 186.668C108.093 187.114 107.201 187.666 106.373 188.291C102.136 191.474 99.577 196.312 95.4888 199.643C93.5986 201.182 91.3156 202.402 88.8414 202.529C86.6009 202.646 84.3497 201.956 82.8418 200.238C82.6294 199.994 82.3428 200.015 82.141 200.174C81.8649 200.333 81.7375 200.715 82.0029 201.023Z" fill="black"/>
<path d="M75.9185 123.129C76.2052 128.392 76.5132 133.654 76.853 138.916C78.0529 157.705 79.582 176.473 81.4297 195.209C81.4615 195.559 81.7482 195.739 82.0243 195.75C82.6508 196.28 83.341 196.705 84.1162 197.012C88.1089 198.636 92.6749 197.002 96.0092 194.668C98.0268 193.246 99.8426 191.57 101.765 190.021C103.772 188.398 105.938 187.008 108.359 186.085C118.51 182.255 129.373 185.682 139.408 188.111C150.303 190.753 161.474 191.538 172.602 190C181.671 188.748 192.661 186.392 197.514 177.703C202.398 168.951 199.829 158.808 196.951 149.801C200.646 144.698 203.758 139.192 206.2 133.378C209.248 126.132 211.658 118.207 211.435 110.271C211.233 103.205 208.536 96.6063 203.439 91.6623C198.799 87.164 192.597 84.2889 186.12 83.9282C179.504 83.5675 172.836 85.8166 167.59 89.8057C164.914 91.8427 162.589 94.3147 160.794 97.1685C158.649 100.564 157.311 104.383 155.655 108.022C154.179 111.258 152.395 114.44 149.729 116.859C146.767 119.533 143.018 120.488 139.089 120.339C134.959 120.18 130.902 119.087 126.91 118.111C122.907 117.135 118.871 116.159 114.751 115.83C110.812 115.523 106.734 115.788 103.007 117.209C99.5028 118.546 96.6039 120.912 93.535 122.991C90.806 124.838 87.9284 126.386 84.5622 126.45C81.727 126.503 78.7856 125.516 77.4158 122.864C77.2671 122.567 76.9804 122.525 76.7362 122.631C76.3964 122.472 75.8867 122.631 75.9185 123.129Z" fill="#0E2933"/>
<path d="M149.06 145.388C149.496 145.165 149.942 145.122 150.388 145.08C154.54 144.666 158.702 144.252 162.854 143.839C164.935 143.637 167.006 143.425 169.087 143.223C170.946 143.043 172.963 143.117 174.577 142.046C175.214 141.621 175.809 141.101 176.329 140.507C176.882 138.057 177.444 135.595 177.996 133.144C178.05 132.922 178.188 132.794 178.358 132.752C178.538 130.301 178.708 127.85 178.888 125.4C178.729 125.028 178.538 124.678 178.315 124.349C176.977 123.543 175.65 122.737 174.312 121.92C173.993 121.729 173.972 121.23 174.216 120.986C174.163 120.891 174.121 120.795 174.078 120.689C174.216 121.061 171.466 121.326 171.211 121.305C168.206 121.039 165.912 118.048 165.944 115.141C165.955 113.931 166.571 113.114 167.505 112.329C169.098 110.992 170.234 111.597 171.923 111.746C172.634 111.809 174.068 111.841 173.951 112.891C173.919 113.199 173.558 113.464 173.271 113.326C174.715 114.037 177.328 111.003 178.092 110.091C179.494 108.404 180.556 106.462 181.533 104.51C183.391 100.776 184.973 96.829 187.936 93.8054C189.04 92.6702 190.325 91.7365 191.769 91.1106C191.737 91.1 191.695 91.1 191.663 91.0894C190.941 90.9409 191.249 89.8481 191.96 89.9966C192.587 90.1239 193.203 90.2831 193.797 90.4847C193.978 90.474 194.126 90.5271 194.233 90.6332C200.02 92.6808 204.607 97.752 206.242 103.661C208.132 110.483 205.488 117.687 200.158 122.217C197.546 124.434 194.402 125.951 191.026 126.492C190.781 126.535 190.399 130.078 190.346 130.471C190.134 131.914 189.953 133.367 189.805 134.821C189.666 136.274 189.55 137.728 189.486 139.192C189.443 140.051 188.87 142.332 189.953 142.512C192.661 142.947 195.316 142.746 198.045 142.735C200.827 142.714 203.609 142.82 206.38 143.043C208.366 143.202 210.341 143.425 212.316 143.711C213.739 143.913 215.279 144.146 216.426 145.101C219.07 147.329 216.734 151.233 215.247 153.429C213.58 155.891 211.446 158.002 209.024 159.721C197.047 168.229 181.171 165.535 168.556 159.997C164.67 158.288 160.943 156.23 157.417 153.864C155.633 152.666 153.903 151.382 152.235 150.034C151.343 149.313 146.788 146.608 149.06 145.388Z" fill="white"/>
<path d="M185.101 125.124C192.236 126.747 200.222 123.585 204.055 117.273C207.782 111.141 207.453 103.163 203.046 97.4761C200.636 94.3675 197.217 92.0441 193.394 91.0787C192.693 90.8983 192.852 89.7737 193.564 89.9541C200.795 91.7789 206.603 97.9853 207.612 105.422C208.674 113.146 204.735 120.965 197.79 124.562C195.942 125.516 193.935 126.164 191.875 126.482C191.27 131.5 190.675 136.518 190.07 141.536C201.156 141.749 212.21 142.916 223.105 145.016C223.827 145.154 223.519 146.247 222.808 146.109C211.807 143.987 200.646 142.831 189.444 142.65C189.168 142.65 188.838 142.396 188.87 142.077C189.486 136.921 190.102 131.765 190.718 126.609C188.785 126.789 186.821 126.673 184.92 126.238C184.219 126.089 184.378 124.965 185.101 125.124Z" fill="black"/>
<path d="M174.843 121.825L179.154 124.19C179.791 124.54 179.218 125.527 178.581 125.166L174.269 122.801C173.622 122.45 174.195 121.474 174.843 121.825Z" fill="black"/>
<path d="M136.838 146.268C144.324 145.356 151.8 144.444 159.286 143.531L170.224 142.194C171.71 142.014 173.484 141.993 174.79 141.144C176.117 140.285 176.361 138.63 176.552 137.176C177.094 133.017 177.593 128.859 178.124 124.7C178.209 123.989 179.356 123.978 179.26 124.7C178.772 128.583 178.283 132.466 177.795 136.349C177.614 137.823 177.519 139.436 176.722 140.741C175.968 141.993 174.662 142.629 173.261 142.916C171.53 143.277 169.735 143.393 167.983 143.605L162.09 144.327C158.118 144.815 154.136 145.292 150.165 145.78C145.726 146.321 141.277 146.862 136.838 147.404C136.106 147.499 136.116 146.353 136.838 146.268Z" fill="black"/>
<path d="M170.797 110.833C172.687 111.014 174.344 112.234 174.97 114.037C175.214 114.727 174.11 115.024 173.877 114.334C173.314 112.722 171.509 111.714 169.831 111.99C168.089 112.276 166.741 113.942 166.603 115.671C166.454 117.464 167.569 119.151 169.056 120.085C170.935 121.262 173.271 121.23 175.342 120.636C176.043 120.435 176.351 121.527 175.639 121.729C171.901 122.8 167.24 121.814 165.764 117.793C164.585 114.536 167.144 110.483 170.797 110.833Z" fill="black"/>
<path d="M169.587 116.69C171.455 116.743 173.324 116.796 175.183 116.859C175.915 116.88 175.915 118.016 175.183 117.994C173.314 117.941 171.445 117.888 169.587 117.825C168.854 117.803 168.854 116.668 169.587 116.69Z" fill="black"/>
<path d="M201.506 97.3065C202.972 98.7069 204.904 99.3859 206.922 99.2692C207.655 99.2267 207.655 100.362 206.922 100.404C204.607 100.542 202.377 99.7041 200.699 98.1021C200.168 97.6035 200.975 96.8078 201.506 97.3065Z" fill="white"/>
<path d="M164.649 105.051C165.02 105.497 165.541 105.73 166.061 105.688C166.125 105.857 166.199 106.027 166.263 106.186C166.369 106.451 166.603 106.568 166.826 106.568C169.958 110.409 173.282 114.09 176.765 117.612C176.839 117.931 177.094 118.196 177.476 118.09C180.131 117.347 182.648 116.127 184.856 114.483C188.87 111.512 191.886 107.311 193.245 102.494C194.732 97.232 194.254 91.5348 191.971 86.5803C191.78 86.1559 191.302 86.2408 191.068 86.5379C189.114 85.4345 186.693 85.6043 184.623 86.4954C182.042 87.5988 179.781 89.5085 177.572 91.1953C175.299 92.9459 173.069 94.7494 170.903 96.6379C169.81 97.5927 168.716 98.5582 167.654 99.5554C166.698 100.436 165.594 101.306 164.819 102.356C164.224 103.152 163.948 104.234 164.649 105.051Z" fill="#0E2933"/>
<path d="M261.025 150.756C261.056 148.857 261.078 146.947 261.109 145.037C261.12 144.719 261.364 144.528 261.63 144.486L262.129 132.635C262.139 132.296 262.373 132.115 262.628 132.094C262.607 131.564 262.585 131.033 262.554 130.503C261.81 129.272 261.63 127.723 262.118 126.323C260.292 117.941 262.479 109.051 263.626 100.553C266.238 96.3091 268.84 92.0548 271.442 87.8005C271.654 89.1585 271.856 90.5165 272.068 91.8745C272.503 94.6859 272.939 97.508 273.364 100.319C273.926 101.73 275.53 102.24 276.751 101.688L278.142 100.118C278.291 99.9481 278.524 99.9269 278.726 99.9905C278.949 98.9296 279.14 97.8687 279.491 96.9775C280.075 95.4498 281.041 94.1448 282.527 93.3916C284.142 92.5747 286.032 92.4155 287.794 92.8187C289.493 93.2006 289.578 92.8823 290.969 93.922C290.715 93.0521 290.577 92.8823 290.194 92.0654C288.474 88.6811 286.456 86.6441 283.165 84.7026C283.08 84.6495 283.016 84.4586 282.973 84.3843C281.423 83.5144 279.798 82.846 278.078 82.3049C276.252 81.732 274.829 80.5119 274.85 78.3158C274.871 76.0136 277.484 74.9951 279.278 75.1967C281.508 75.4513 283.027 76.0454 285.097 76.9154C289.164 78.6235 293.199 81.4774 295.727 85.0951C298.679 89.3176 300.909 92.4474 300.686 97.5822C300.664 97.9748 299.549 100.861 299.241 100.829C299.39 101.211 299.496 101.603 299.56 101.996C299.624 102.081 299.656 102.176 299.656 102.293C299.656 102.441 299.656 102.579 299.656 102.728C299.889 103.704 299.868 104.722 299.592 105.698C299.379 106.42 299.029 107.215 298.445 107.735C298.307 108.064 298.158 108.404 298.01 108.722C296.99 110.907 295.822 113.029 294.686 115.151C292.382 119.469 289.982 123.745 287.497 127.957C286.52 129.612 285.533 131.256 284.534 132.89L284.311 133.473C284.736 137.473 285.161 141.473 285.586 145.462C285.925 148.655 286.265 151.849 286.594 155.031C286.764 156.58 286.924 158.129 287.083 159.678C287.221 160.994 287.402 162.193 286.934 163.466C286.191 165.482 284.513 167.02 282.591 167.9C280.383 168.908 278.004 169.014 275.647 168.548C272.875 167.996 270.305 166.712 267.81 165.439C265.686 164.357 263.446 163.211 261.97 161.28C259.495 158.129 260.44 154.437 261.025 150.756Z" fill="white"/>
<path d="M263.626 100.563C266.238 96.3197 268.84 92.0654 271.442 87.8111C271.442 87.7899 271.431 87.7687 271.431 87.7475C271.25 86.6017 271.027 85.4452 270.443 84.4268C270.146 83.9069 269.732 83.4401 269.244 83.0794C268.224 82.3155 266.886 82.0185 265.697 82.7187C264.231 83.5674 263.732 85.4983 263.828 87.0791C263.86 87.5565 263.934 88.0127 264.051 88.4689C264.136 89.1903 264.189 89.9117 264.221 90.6332C264.338 93.1688 264.189 95.7256 263.924 98.2506C263.828 99.0145 263.732 99.789 263.626 100.563Z" fill="white"/>
<path d="M273.958 110.218C274.564 108.881 275.657 107.735 276.645 106.664C277.579 105.656 278.62 104.69 279.841 104.033C282.4 102.653 285.448 102.908 288.049 104.043C291.182 105.412 293.55 107.99 295.812 110.462C296.3 111.003 295.504 111.809 295.005 111.268C291.808 107.767 287.625 103.332 282.347 104.33C279.809 104.807 278.036 106.749 276.432 108.626C275.604 109.592 274.702 110.706 274.67 112.043C274.648 113.231 275.424 114.09 276.581 114.239C279.299 114.589 281.232 111.947 283.462 110.886C284.12 110.579 284.694 111.555 284.035 111.862C281.614 113.019 279.777 115.501 276.857 115.395C275.774 115.353 274.712 114.928 274.086 114.016C273.31 112.891 273.417 111.406 273.958 110.218Z" fill="black"/>
<path d="M282.899 111.385C283.133 111.151 283.473 111.183 283.706 111.385C284.205 111.82 284.715 112.244 285.214 112.679C285.448 112.881 285.416 113.273 285.214 113.486C284.98 113.719 284.641 113.687 284.407 113.486C283.908 113.051 283.398 112.626 282.899 112.191C282.666 111.99 282.697 111.597 282.899 111.385Z" fill="black"/>
<path d="M284.481 132.338C286.754 128.943 288.899 125.474 290.906 121.909C291.893 120.148 292.849 118.366 293.773 116.573C294.516 115.109 296.226 112.647 294.76 111.13C294.251 110.6 295.058 109.804 295.567 110.324C296.927 111.735 296.47 113.655 295.716 115.247C294.739 117.305 293.656 119.31 292.552 121.305C290.364 125.272 287.996 129.145 285.48 132.911C285.055 133.516 284.067 132.954 284.481 132.338Z" fill="black"/>
<path d="M276.57 100.861C277.993 98.8023 280.383 97.7626 282.825 97.6247C285.575 97.455 288.23 98.4416 290.555 99.8314C292.775 101.147 296.077 102.791 297.489 104.998C298.859 107.131 298.732 110.08 296.746 111.947C295.737 112.902 294.856 111.841 295.419 111.374C297.022 110.027 297.394 107.788 296.406 106.102C295.281 104.171 292.658 102.526 290.81 101.338C287.263 99.0357 281.827 97.2109 278.28 100.585C276.698 102.091 275.955 104.595 276.974 106.621C277.303 107.269 276.316 107.852 275.997 107.194C274.988 105.157 275.296 102.717 276.57 100.861Z" fill="black"/>
<path d="M278.1 99.1629C278.174 99.8843 279.31 99.895 279.236 99.1629C279.013 96.988 280.308 94.9616 282.209 93.9538C284.927 92.5109 287.89 93.2005 290.481 94.6115C290.736 94.7495 290.98 94.898 291.224 95.0465C292.265 95.6937 293.242 96.4469 294.091 97.1896C295.652 98.5688 298.233 100.086 299.082 102.038C299.815 103.714 299.751 105.847 298.318 107.141C297.776 107.629 297.999 108.87 298.583 108.435C301.1 106.547 301.015 103.555 300.048 101.423C299.953 101.221 299.847 101.02 299.719 100.818C299.518 100.489 299.273 100.171 299.008 99.8631C297.649 98.2823 295.589 96.935 294.144 95.7467C293.284 95.0359 292.371 94.3675 291.405 93.8052C290.916 93.5188 290.407 93.2536 289.876 93.0308C289.101 92.6913 288.294 92.4366 287.455 92.2669C285.108 91.8213 282.57 92.129 280.648 93.6249C278.981 94.9298 277.887 97.0092 278.1 99.1629Z" fill="black"/>
<path d="M275.275 81.5304C275.381 81.6365 275.487 81.7426 275.604 81.8381C277.42 83.387 279.947 83.6735 282.039 84.7238C285.522 86.4849 288.315 89.4661 289.876 93.0202C290.109 93.5401 290.301 94.0706 290.481 94.6116C290.736 94.7495 290.98 94.8981 291.224 95.0466C291.49 94.9723 291.702 94.7177 291.596 94.3782C291.532 94.1873 291.469 93.9963 291.405 93.8053C290.003 89.8268 287.179 86.4001 283.536 84.257C282.708 83.769 281.837 83.3552 280.945 83.0157C279.809 82.5807 278.62 82.2943 277.526 81.7532C276.921 81.4455 276.347 80.9999 275.923 80.4907C275.02 79.3979 274.744 77.9763 276.05 76.7881C276.836 76.0879 277.781 75.8226 278.758 75.812C280.075 75.8014 281.466 76.247 282.634 76.6714C284.545 77.3716 286.372 78.3158 288.06 79.451C291.426 81.6895 295.175 84.7026 297.213 88.193C299.135 91.4819 301.195 96.2667 299.008 99.8738C298.955 99.9693 298.891 100.054 298.838 100.139C298.456 100.701 299.273 101.232 299.719 100.829C299.751 100.797 299.794 100.754 299.815 100.712C302.735 96.394 300.07 90.4846 297.585 86.6229C295.206 82.9414 291.065 79.8329 287.285 77.6262C285.32 76.4804 283.154 75.4831 280.945 74.9527C280.446 74.836 279.937 74.7511 279.427 74.7193C277.675 74.6026 275.901 75.0375 274.755 76.5228C273.512 78.1248 273.937 80.1618 275.275 81.5304Z" fill="black"/>
<path d="M263.255 99.0251C263.562 96.0226 263.584 93.0308 263.17 90.039C262.83 87.5671 262.49 84.8935 264.104 82.7717C265.357 81.1378 267.513 80.5225 269.328 81.6259C271.112 82.7186 272.068 84.8193 272.599 86.7501C273.47 89.9011 273.587 93.0414 273.417 96.2879C273.353 97.561 273.279 99.2903 274.34 100.203C275.052 100.807 276.443 101.147 277.006 100.192C277.377 99.5661 278.354 100.128 277.983 100.765C277.07 102.335 274.925 102.144 273.661 101.115C271.75 99.5661 272.302 96.6804 272.376 94.548C272.482 91.7259 272.153 88.7871 271.208 86.1136C270.603 84.3949 269.233 81.9972 267.088 82.1882C264.348 82.4322 263.86 85.8484 264.04 87.9702C264.168 89.4343 264.444 90.8772 264.539 92.3306C264.635 93.7841 264.635 95.2376 264.561 96.691C264.253 102.399 262.83 107.947 262.055 113.592C261.248 119.459 261.131 125.718 263.764 131.171C264.083 131.829 263.106 132.402 262.787 131.744C257.743 121.315 262.15 109.793 263.255 99.0251Z" fill="black"/>
<path d="M260.791 141.621C261.12 137.696 261.481 133.781 261.874 129.856C261.948 129.134 263.085 129.124 263.01 129.856C261.63 143.754 260.621 157.684 259.984 171.645C259.803 175.582 259.665 179.518 259.538 183.443C259.517 184.175 258.381 184.175 258.402 183.443C258.827 169.481 259.623 155.541 260.791 141.621Z" fill="black"/>
<path d="M285.395 132.497C287.306 149.027 288.389 165.651 288.633 182.287C288.697 187.008 289.589 191.835 289.525 196.556C289.515 197.288 287.497 197.076 287.508 196.344C287.741 179.719 287.147 163.084 285.692 146.512C285.288 141.897 284.821 137.282 284.28 132.688C284.195 131.967 285.31 131.776 285.395 132.497Z" fill="black"/>
<path d="M287.816 160.166C287.816 160.166 282.389 163.084 274.011 162.012C265.633 160.941 259.729 155.763 259.729 155.763L259.156 165.45L244.024 153.875L215.449 166.956L221.905 189.681C221.905 189.681 245.808 206.359 255.503 209.892C265.198 213.425 281.774 214.125 287.55 203.802C292.573 194.869 287.816 160.166 287.816 160.166Z" fill="#00C553"/>
<path d="M90.7211 234.007C91.836 245.062 104.377 253.91 120.91 250.101C137.444 246.292 143.571 222.04 143.571 222.04L147.138 214.178L148.423 211.335C148.413 211.43 148.211 212.82 148.009 214.73C149.91 215.918 151.853 217.043 153.85 218.072C154.189 218.252 154.529 218.422 154.869 218.592C166.008 224.183 178.591 227.334 191.907 227.334C199.054 227.334 205.998 226.432 212.614 224.724L213.845 209.224C213.845 209.224 217.817 208.014 224.241 199.665C230.666 191.315 227.788 181.639 225.154 174.563C222.521 167.487 224.836 169.534 224.836 169.534L249.047 158.564C249.047 158.564 242.378 151.53 234.18 147.923C233.777 147.743 233.363 147.573 232.949 147.414C231.143 146.714 229.338 146.13 227.586 145.642C219.07 143.276 211.711 143.17 211.711 143.17C211.711 143.17 212.624 156.899 188.944 157.673C165.265 158.448 157.768 144.337 157.768 144.337C157.768 144.337 130.616 143.605 121.823 157.705C119.816 160.92 117.077 166.171 114.05 172.462C103.814 193.745 89.6061 222.91 90.7211 234.007Z" fill="#00C553"/>
<path d="M218.624 165.832C219.325 164.06 220.015 162.277 220.716 160.506C220.981 159.837 222.075 160.124 221.81 160.803C221.151 162.479 220.493 164.155 219.834 165.821C225.6 171.253 228.924 179.083 229.03 186.986C229.062 189.257 228.818 191.527 228.308 193.734C228.149 194.445 227.045 194.148 227.215 193.437C228.924 185.915 227.31 177.809 223.052 171.391C221.831 169.555 220.387 167.879 218.762 166.383C218.635 166.267 218.56 166.012 218.624 165.832Z" fill="white"/>
<path d="M112.553 225.785C113.116 226.792 114.592 228.458 115.887 227.525C116.493 227.09 116.514 226.251 116.535 225.572C116.567 224.809 116.514 224.055 116.387 223.313C116.45 223.228 116.493 223.111 116.472 222.952C116.249 221.201 114.327 221.106 113.031 221.796C111.396 222.676 111.789 224.416 112.553 225.785Z" fill="white"/>
<path d="M227.586 145.632C229.338 146.12 231.154 146.703 232.949 147.403C233.363 147.562 233.777 147.732 234.18 147.913C242.697 134.365 251.149 120.774 259.549 107.152C260.568 105.486 261.598 103.831 262.617 102.165C261.662 100.585 260.653 99.0463 259.602 97.5398C257.17 101.2 254.738 104.85 252.296 108.51C246.668 116.965 241.029 125.421 235.402 133.877C232.811 137.802 230.198 141.717 227.586 145.632Z" fill="#FFCF34"/>
<path d="M264.21 90.6331C262.681 92.9353 261.141 95.2375 259.612 97.5397C260.674 99.0462 261.672 100.585 262.628 102.165C262.957 101.624 263.286 101.094 263.615 100.553C266.228 96.309 268.829 92.0547 271.431 87.8004C272.716 85.7104 273.99 83.6098 275.264 81.5197C273.926 80.1511 273.491 78.1248 274.744 76.5016C275.891 75.0269 277.653 74.5813 279.416 74.698C281.88 70.6346 284.343 66.5819 286.807 62.5185C287.901 63.3355 290.545 65.1499 291.638 65.9774C291.936 66.2002 292.222 66.0623 292.36 65.8183C292.456 65.7546 292.53 65.6485 292.562 65.5C293.741 60.2696 293.008 53.9887 293.475 48.6522C293.486 48.4613 293.422 48.3233 293.327 48.2385C293.539 47.7611 293.051 47.1139 292.562 47.4958C290.396 49.1615 287.57 51.1985 285.701 53.193C282.706 55 278.596 58.5239 278.596 58.5239C278.225 58.9271 278.586 59.4788 279 59.5C279.924 59.744 282.814 61.1393 283.706 61.3727C278.896 68.5977 274.096 75.8119 269.286 83.0369C269.275 83.0581 269.265 83.0687 269.254 83.0899C267.566 85.5937 265.888 88.1187 264.21 90.6331Z" fill="#7665FF"/>
<path d="M154.168 219.589C154.402 219.26 154.635 218.931 154.869 218.591C157.98 214.199 161.081 209.807 164.192 205.404C164.585 205.5 165.095 205.054 164.851 204.555C170.935 195.866 177.03 187.23 183.136 178.594C184.909 176.08 186.683 173.576 188.456 171.062C194.615 172.929 200.763 174.786 206.922 176.653C207.304 176.77 207.676 176.886 208.058 176.992C209.842 177.534 211.626 178.075 213.421 178.616C213.792 178.732 214.175 178.849 214.546 178.955C214.759 178.626 214.96 178.297 215.173 177.968C216.447 175.974 217.721 173.969 218.985 171.974C219.197 171.635 219.41 171.306 219.622 170.966C223.201 165.333 226.758 159.699 230.315 154.055C231.611 152.008 232.895 149.96 234.18 147.902C233.777 147.721 233.363 147.552 232.949 147.393C231.143 146.692 229.338 146.109 227.586 145.621C224.56 150.162 221.544 154.702 218.518 159.243C216.394 162.437 214.27 165.63 212.136 168.823L193.765 163.561L193.436 163.466L192.608 163.232L192.236 163.126L186.821 161.577L186.279 161.418L185.653 161.238C185.557 161.376 185.451 161.503 185.355 161.641C185.217 161.832 185.069 162.023 184.931 162.214C183.688 163.879 182.435 165.556 181.193 167.221C181.087 167.359 181.002 167.487 180.906 167.603C180.757 167.805 180.598 168.006 180.449 168.219C180.365 168.335 180.28 168.452 180.184 168.569C174.099 176.727 168.015 184.886 161.93 193.044C161.697 193.352 161.835 193.702 162.079 193.882C161.58 197.458 162.068 201.075 163.502 204.396C160.274 208.958 157.056 213.52 153.828 218.082C153.648 218.337 153.457 218.602 153.276 218.867C152.883 219.451 153.754 220.183 154.168 219.589Z" fill="#FE4040"/>
<path d="M113.392 241.879H160.784C163.99 241.879 167.548 239.502 168.748 236.564L191.514 180.494C192.703 177.555 191.079 175.178 187.872 175.178H140.48C137.274 175.178 133.716 177.555 132.516 180.494L109.75 236.564C108.561 239.492 110.185 241.879 113.392 241.879Z" fill="#0E2933"/>
<path d="M110.96 219.78C111.3 218.687 112.022 217.764 112.946 217.138C112.32 215.96 112.054 214.613 112.203 213.266C112.309 212.311 112.596 211.367 113.095 210.55C113.594 209.733 114.613 209.011 114.645 207.993C114.677 206.921 114.103 205.924 114.178 204.831C114.252 203.823 114.613 202.847 115.229 202.052C115.749 201.373 116.514 200.683 117.427 200.715C117.353 199.474 117.459 198.243 117.746 197.023C117.671 195.05 117.926 193.087 119.009 191.368C119.668 190.318 120.592 189.427 121.728 188.928C123.076 188.334 124.563 188.344 125.996 188.578C131.444 189.458 136.413 193.034 139.44 197.585C140.279 198.848 140.98 200.375 140.672 201.935C140.491 202.826 139.992 203.654 139.259 204.163C140.555 205.256 141.404 206.953 140.597 208.619C140.523 208.757 140.449 208.895 140.364 209.022C140.544 209.245 140.587 209.595 140.353 209.796C138.792 211.176 136.647 211.664 134.661 211.027C134.513 210.974 134.396 210.889 134.332 210.772C134.152 210.751 133.961 210.73 133.78 210.709C134.035 211.038 134.29 211.367 134.449 211.748C134.683 212.321 134.725 212.947 134.587 213.552C134.3 214.868 133.281 215.96 132.039 216.459C130.509 217.074 128.821 216.915 127.228 216.618C126.23 216.438 125.232 216.183 124.213 216.098C123.777 216.056 123.331 216.045 122.885 216.077C122.79 216.088 121.855 216.215 121.855 216.47C122.567 216.777 123.225 217.17 123.83 217.679C124.106 217.902 124.053 218.21 123.862 218.411C124.457 219.451 124.234 220.745 123.437 221.679C123.384 221.742 123.331 221.795 123.278 221.848C123.267 221.87 123.246 221.902 123.225 221.923C123.172 222.018 123.108 222.114 123.034 222.199C123.002 222.241 122.97 222.273 122.949 222.315C122.821 222.485 122.63 222.517 122.45 222.474C121.367 223.079 120.007 223.175 118.797 223.302C117.873 223.397 116.907 223.514 116.1 224.013C115.431 224.416 114.932 224.978 114.093 224.915C113.965 224.904 113.838 224.883 113.721 224.851C113.849 225.275 113.265 225.785 112.872 225.487C111.183 224.14 110.313 221.87 110.96 219.78ZM130.998 200.248C129.819 199.145 128.502 198.19 127.058 197.437C126.697 197.246 126.336 197.065 125.965 196.906C125.285 196.62 125.211 197.118 124.988 197.649L124.181 199.516C126.474 199.548 128.757 199.792 130.998 200.248Z" fill="white"/>
<path d="M110.313 221.286C110.408 219.631 111.13 218.241 112.277 217.276C110.599 214.433 111.47 210.55 114.146 208.651C114.082 208.693 113.551 206.858 113.52 206.688C113.318 205.266 113.636 203.813 114.305 202.561C114.645 201.935 115.07 201.351 115.558 200.842C115.643 200.747 116.822 200.046 116.822 200.142C116.896 197.214 117.066 194.158 118.595 191.591C120.05 189.151 122.482 187.687 125.359 187.803C128.237 187.92 131.125 189.183 133.536 190.7C135.946 192.217 138.049 194.201 139.695 196.524C141.33 198.826 142.721 202.497 140.088 204.672C140.374 205.001 140.629 205.362 140.82 205.765C141.468 207.08 141.521 208.64 140.65 209.86C139.206 211.865 136.913 212.003 134.715 211.589C135.33 212.417 135.49 213.541 135.161 214.56C134.661 216.119 133.111 217.053 131.571 217.34C129.543 217.711 127.536 217.127 125.54 216.873C124.935 216.798 124.319 216.745 123.703 216.714C125.317 217.891 125.869 220.034 124.404 221.753C122.153 224.405 118.192 223.037 115.654 225.074C115.091 225.53 114.273 224.734 114.847 224.267C116.726 222.761 119.073 222.909 121.282 222.305C122.365 222.008 123.459 221.435 123.958 220.374C124.467 219.281 123.894 218.178 122.938 217.552C121.728 216.756 120.199 216.777 118.797 216.82C117.257 216.862 115.686 216.83 114.242 217.435C112.829 218.029 111.874 219.122 111.534 220.607C110.992 223.26 112.596 225.678 114.369 227.482C114.879 228.002 114.082 228.808 113.562 228.288C111.736 226.41 110.153 224.013 110.313 221.286ZM138.856 197.299C137.444 195.24 135.617 193.458 133.557 192.058C129.66 189.416 123.183 186.859 119.891 191.708C118.266 194.105 118.064 197.044 117.979 199.877C120.103 199.452 122.269 199.272 124.425 199.325C124.276 199.166 124.213 198.922 124.34 198.678C124.606 198.147 124.871 197.617 125.126 197.086C124.298 196.651 123.459 196.248 122.599 195.877C121.93 195.591 122.503 194.604 123.172 194.901C124.117 195.315 125.052 195.76 125.954 196.248C126.06 196.27 126.166 196.333 126.251 196.407C128.29 197.521 130.233 198.816 132.049 200.28C132.155 200.365 132.219 200.46 132.24 200.566C133.886 201.065 135.49 201.701 137.029 202.487C137.794 202.879 138.58 203.335 139.249 203.898C141.436 202.115 140.151 199.166 138.856 197.299ZM125.264 199.346C126.772 199.42 128.269 199.622 129.756 199.919C128.598 199.081 127.388 198.317 126.135 197.617C125.869 198.158 125.593 198.699 125.328 199.24C125.306 199.283 125.285 199.314 125.264 199.346ZM113.201 216.618C113.626 216.385 114.093 216.204 114.581 216.066C116.047 215.663 117.576 215.6 119.084 215.578C120.581 215.557 122.089 215.483 123.576 215.568C125.391 215.663 127.154 216.066 128.959 216.268C130.456 216.438 132.187 216.364 133.355 215.292C134.279 214.433 134.523 213.117 133.716 211.939C133.472 211.589 133.472 211.589 133.164 211.229C132.718 211.101 132.283 210.953 131.879 210.815C127.568 209.33 123.098 208.661 118.542 208.948C117.81 208.99 117.81 207.855 118.542 207.812C122.025 207.6 125.529 207.908 128.927 208.746C130.616 209.16 132.219 209.796 133.886 210.284C135.362 210.719 136.976 210.963 138.421 210.274C139.769 209.627 140.502 208.322 140.035 206.847C139.546 205.277 138.07 204.322 136.69 203.59C133.77 202.062 130.541 201.065 127.271 200.662C124.075 200.269 120.836 200.418 117.703 201.097C117.608 201.15 117.491 201.171 117.374 201.171C117.204 201.213 117.045 201.245 116.886 201.288C116.843 201.341 116.801 201.394 116.737 201.436C114.592 202.975 113.976 206.126 115.314 208.385C115.473 208.661 115.378 208.926 115.187 209.086C115.165 209.234 115.091 209.383 114.932 209.489C112.606 210.974 111.874 214.242 113.201 216.618Z" fill="black"/>
<path d="M78.998 119.618C78.9874 121.326 80.0599 122.769 81.504 123.617C83.1605 124.583 85.1144 124.593 86.9196 124.084C90.9335 122.949 93.7687 119.66 97.1561 117.422C103.272 113.369 110.939 112.647 118.043 113.687C121.972 114.26 125.689 115.512 129.469 116.658C133.472 117.867 137.752 118.907 141.925 117.931C148.774 116.318 153.297 110.112 156.887 104.521C160.943 98.1869 165.127 91.0787 172.517 88.2567C173.197 87.9914 173.494 89.0948 172.815 89.3494C165.934 91.9699 161.909 98.728 158.15 104.637C154.54 110.313 150.144 116.488 143.443 118.673C135.341 121.315 127.303 116.53 119.477 115.066C112.065 113.676 103.91 114.218 97.5171 118.546C93.7687 121.092 90.5406 124.816 85.8152 125.474C83.8507 125.75 81.865 125.357 80.2722 124.148C78.8281 123.066 77.8618 121.453 77.8724 119.618C77.8618 118.886 78.998 118.886 78.998 119.618Z" fill="black"/>
<path d="M259.336 156.304C259.389 155.583 260.525 155.572 260.472 156.304L258.933 179.21C258.88 179.931 257.743 179.942 257.796 179.21L259.336 156.304Z" fill="white"/>
<path d="M276.464 114.387C277.07 113.973 277.643 114.96 277.038 115.363C272.748 118.302 270.443 123.776 271.335 128.89C271.463 129.601 270.369 129.909 270.242 129.187C269.254 123.543 271.728 117.634 276.464 114.387Z" fill="black"/>
<path d="M82.0031 201.023C82.0668 201.097 82.1305 201.16 82.1942 201.235C82.173 200.874 82.1411 200.513 82.1093 200.153C81.865 200.333 81.7376 200.715 82.0031 201.023Z" fill="black"/>
<path d="M127.154 65.1391C128.237 63.8978 130.414 63.8978 131.476 65.1709C132.049 65.8605 132.187 66.7623 131.986 67.5898C132.113 67.7489 132.166 67.9717 132.049 68.2051C131.295 69.7329 129.182 70.4013 127.738 69.4146C126.379 68.5022 126.06 66.3803 127.154 65.1391ZM128.45 68.534C128.853 68.778 129.31 68.8099 129.734 68.7038C129.777 68.6189 129.851 68.534 129.968 68.481C130.86 68.0248 131.285 66.7517 130.616 65.9241C129.979 65.1284 128.545 65.1603 127.929 65.9666C127.345 66.7411 127.632 68.046 128.45 68.534Z" fill="#FFCF34"/>
<path d="M311.655 114.493C311.867 113.74 312.271 113.104 312.844 112.605C312.526 112.096 312.196 111.586 311.878 111.077C311.485 110.462 312.472 109.889 312.855 110.504C313.237 111.098 313.609 111.693 313.991 112.297C314.033 112.329 314.065 112.372 314.097 112.414C314.373 112.191 314.649 111.968 314.925 111.756C315.488 111.3 316.306 112.106 315.732 112.562C315.393 112.838 315.042 113.114 314.702 113.379C315.106 114.027 315.509 114.684 315.913 115.332C316.295 115.957 315.318 116.52 314.936 115.904C314.554 115.31 314.182 114.706 313.8 114.111C313.407 114.43 313.014 114.737 312.61 115.056C312.186 115.385 311.495 115.087 311.655 114.493Z" fill="#40C9FF"/>
<path d="M183.975 51.103C186.215 51.5485 188.339 52.4291 190.24 53.6916C190.675 53.9887 190.548 54.5404 190.102 54.7313C188.169 55.5376 186.237 56.3545 184.304 57.1608C183.964 57.2988 183.571 56.9487 183.582 56.6092C183.646 55.1981 183.72 53.7871 183.784 52.3761C183.784 52.323 183.794 52.27 183.816 52.2275C183.773 52.2169 183.72 52.2063 183.678 52.1957C182.955 52.0472 183.253 50.9544 183.975 51.103ZM184.761 55.7498C186.077 55.1981 187.405 54.6464 188.721 54.0842C187.522 53.3946 186.247 52.8641 184.909 52.4928C184.867 53.5749 184.814 54.6571 184.761 55.7498Z" fill="#FFCF34"/>
<path d="M147.361 93.5612C148.466 93.4339 149.57 94.1235 149.878 95.1951C149.931 95.3754 149.889 95.5346 149.804 95.6513C149.889 95.768 149.942 95.9271 149.899 96.1075C149.698 97.1684 148.646 97.9429 147.584 97.9216C146.416 97.9004 145.578 96.9244 145.535 95.7998C145.503 94.707 146.225 93.6992 147.361 93.5612ZM146.671 95.8104C146.767 97.1578 148.583 97.0199 148.806 95.821C148.816 95.768 148.837 95.7149 148.859 95.6725C148.827 95.63 148.795 95.577 148.784 95.5133C148.445 94.3145 146.586 94.4736 146.671 95.8104Z" fill="#FE4040"/>
<path d="M117.979 103.916C118.117 102.505 118.245 101.083 118.383 99.6723C118.139 99.2055 118.829 98.622 119.328 99.0358C119.381 99.0782 119.402 99.0888 119.413 99.11C120.645 100.139 121.887 101.168 123.119 102.197C123.682 102.229 123.862 103.131 123.225 103.311C121.717 103.736 120.209 104.16 118.701 104.595C118.34 104.701 118.086 104.457 118.022 104.171C117.979 104.096 117.969 104.011 117.979 103.916ZM119.169 103.279C120.029 103.035 120.9 102.791 121.76 102.547C120.984 101.9 120.199 101.242 119.424 100.595C119.339 101.486 119.254 102.388 119.169 103.279Z" fill="#7665FF"/>
<path d="M197.057 75.9287H249.992C256.522 75.9287 261.821 70.6347 261.821 64.11V57.8293C261.821 51.294 256.522 46 249.992 46H197.057C190.527 46 185.228 51.294 185.228 57.8187V64.0994C185.228 70.6347 190.527 75.9287 197.057 75.9287Z" fill="#0E2933"/>
<path d="M237.854 83.0792C243.397 80.7027 247.326 76.5757 248.622 71.9501C248.909 71.897 249.163 71.6636 248.994 71.3984C248.94 71.3135 248.877 71.2287 248.813 71.1438C248.834 71.0271 248.866 70.9104 248.887 70.7937C248.94 70.4754 248.516 70.3799 248.197 70.486C245.818 68.3854 240.923 68.0671 238.215 70.0192C238.035 70.0616 237.876 70.1783 237.865 70.3375C237.801 70.4648 237.854 70.6027 237.971 70.7088C239.33 74.6555 239.033 78.8355 237.122 82.6654C236.973 82.9731 237.504 83.2277 237.854 83.0792Z" fill="#0E2933"/>
<path d="M200.476 60.2164C200.731 61.9669 202.738 63.3461 204.458 62.6035C205.775 62.0306 206.349 60.4498 206.009 59.1236C205.871 58.8266 205.743 58.5295 205.616 58.2431C205.329 57.5853 206.179 57.0548 206.593 57.6702C206.837 58.0309 207.018 58.434 207.124 58.8478C207.941 60.5771 209.014 62.3064 210.957 62.7838C212.253 63.1021 213.155 62.5292 214.153 61.7759C214.865 61.2455 215.619 60.8423 216.5 60.6832C216.723 60.6408 216.935 60.6195 217.158 60.6089C217.381 59.6965 217.944 58.9114 218.911 58.5401C221.247 57.6489 223.073 60.1846 224.029 61.9245C224.57 62.9005 225.229 64.0675 226.259 64.5874C227.246 65.086 228.266 64.6298 228.701 63.6538C229.179 62.561 228.988 61.6062 228.446 60.7999C227.161 59.8451 225.876 58.8902 224.592 57.9248C224.018 57.4898 224.496 56.6092 225.165 56.9487C226.652 57.702 228.404 58.6356 229.37 60.0785C229.529 60.1952 229.678 60.3119 229.837 60.4286C230.612 61.0121 231.388 61.585 232.173 62.1685C232.917 62.7202 233.639 63.3567 234.435 63.8341C234.754 64.0251 235.285 64.2903 235.465 63.8235C235.561 63.5689 235.433 63.187 235.359 62.9536C235.083 62.1261 234.563 61.341 234.159 60.5665C233.225 58.7841 232.29 56.9912 231.356 55.2088C231.058 54.6359 231.77 54.0736 232.248 54.5192C234.17 56.3228 236.092 58.1264 238.014 59.9405C238.98 60.8423 239.936 61.7441 240.902 62.6459C241.805 63.4946 242.675 64.4389 243.652 65.2133C244.13 65.5953 245.702 66.5713 245.946 65.468C246.073 64.9163 245.638 64.2903 245.373 63.8554C245.075 63.3567 244.767 62.8793 244.449 62.4019C243.143 60.4604 241.613 58.6993 239.914 57.0973C239.479 56.6941 239.936 56.0257 240.467 56.153C244.045 56.9806 246.955 59.8875 247.772 63.4628C247.932 64.1736 246.838 64.4813 246.679 63.7599C246.137 61.4152 244.629 59.4207 242.612 58.2218C243.44 59.1448 244.226 60.1103 244.948 61.1288C245.553 61.9775 246.169 62.8581 246.647 63.7917C247.04 64.5556 247.316 65.4998 246.827 66.2955C245.914 67.7808 243.96 66.9002 242.92 66.0833C242.028 65.3725 241.231 64.5344 240.403 63.7493C239.479 62.8793 238.545 62.0094 237.621 61.1394C236.378 59.9724 235.136 58.8054 233.894 57.6489C234.499 58.8054 235.104 59.9724 235.72 61.1288C236.293 62.2215 237.419 64.407 235.709 65.1285C234.817 65.5104 233.968 64.9375 233.267 64.4177C232.301 63.7068 231.345 62.9854 230.379 62.264L230.071 62.0306C230.22 63.5901 229.519 65.3725 227.926 65.8605C225.749 66.5183 224.146 64.4283 223.201 62.7944C222.606 61.7547 222.043 60.6514 221.013 59.9618C219.951 59.2509 218.794 59.5692 218.348 60.7044C220.981 61.097 223.339 63.2188 223.54 65.9454C223.562 66.1788 223.349 66.444 223.126 66.4971C221.002 66.9745 218.794 65.9029 217.679 64.0569C217.297 63.4204 217.063 62.6141 217.042 61.8184C216.267 61.9139 215.513 62.2109 214.822 62.7202C213.952 63.3673 213.155 63.9615 212.04 64.0357C211.095 64.11 210.15 63.8341 209.332 63.3673C208.366 62.8263 207.644 62.0306 207.06 61.1288C206.731 62.2428 205.966 63.2294 204.862 63.6856C202.579 64.6511 199.733 62.9748 199.372 60.5559C199.277 59.8132 200.37 59.495 200.476 60.2164ZM222.34 65.4361C222.043 63.9721 220.907 62.805 219.548 62.1897C219.091 61.9775 218.624 61.8502 218.157 61.7866C218.199 63.8448 220.302 65.5741 222.34 65.4361Z" fill="#FFCF34"/>
<path d="M214.068 94.1448C215.778 92.1927 217.488 90.2406 219.187 88.2991C219.664 87.7474 220.567 88.4476 220.089 88.9993C218.38 90.9514 216.67 92.9035 214.971 94.845C214.493 95.3861 213.591 94.6965 214.068 94.1448Z" fill="#FFCF34"/>
<path d="M217.084 99.3858C220.408 99.0675 223.732 98.7493 227.055 98.431C227.777 98.3567 227.926 99.4919 227.193 99.5556C223.87 99.8738 220.546 100.192 217.222 100.51C216.5 100.585 216.352 99.4601 217.084 99.3858Z" fill="#FFCF34"/>
<path d="M216.872 105.72C219.059 106.749 221.257 107.767 223.445 108.796C224.103 109.104 223.668 110.154 222.999 109.836C220.811 108.807 218.613 107.788 216.426 106.759C215.767 106.462 216.203 105.412 216.872 105.72Z" fill="#FFCF34"/>
<path d="M202.908 102.982C203.896 103.98 205.181 104.542 206.593 104.574C207.326 104.584 207.326 105.73 206.593 105.709C204.883 105.677 203.312 104.998 202.112 103.789C201.591 103.269 202.388 102.462 202.908 102.982Z" fill="black"/>
<path d="M196.155 95.1633C196.516 95.28 196.845 95.4498 197.121 95.662C197.217 95.6726 197.312 95.715 197.397 95.7893C198.14 96.3834 198.533 97.2852 198.523 98.2294C198.523 98.5795 198.162 98.8978 197.801 98.7811C196.452 98.3143 195.549 97.1366 195.422 95.715C195.401 95.3437 195.825 95.0572 196.155 95.1633Z" fill="black"/>
</svg>
