<svg width="105" height="30" viewBox="0 0 105 30" fill="none" xmlns="http://www.w3.org/2000/svg">
<path d="M9.526 5.512C10.9553 5.49067 12.022 5.75733 12.726 6.312C13.43 6.84533 13.782 7.624 13.782 8.648C13.782 9.65067 13.4727 10.5147 12.854 11.24C12.2567 11.944 11.5207 12.4453 10.646 12.744C11.2647 13.384 11.8193 14.0347 12.31 14.696C12.822 15.3573 13.078 16.0507 13.078 16.776C13.078 18.2053 12.5127 19.3147 11.382 20.104C10.2513 20.872 8.67267 21.256 6.646 21.256C4.64067 21.256 3.13667 20.8613 2.134 20.072C1.13133 19.2613 0.63 18.3547 0.63 17.352C0.63 16.328 0.875334 15.4 1.366 14.568C1.878 13.736 2.422 13.32 2.998 13.32C3.33933 13.32 3.58467 13.448 3.734 13.704C3.88333 13.9387 4.16067 14.6427 4.566 15.816C4.71533 16.2427 4.96067 16.648 5.302 17.032C6.09133 17.9067 7.33933 18.344 9.046 18.344C8.79 17.5333 8.374 16.84 7.798 16.264C7.24333 15.6667 6.68867 15.0907 6.134 14.536C5.57933 13.9813 5.08867 13.3947 4.662 12.776C4.23533 12.136 4.022 11.3893 4.022 10.536C4.022 9 4.598 7.752 5.75 6.792C6.838 5.93867 8.09667 5.512 9.526 5.512ZM9.398 11.432C10.2513 10.5147 10.678 9.77867 10.678 9.224C10.678 8.968 10.582 8.744 10.39 8.552C10.2193 8.33867 9.96333 8.232 9.622 8.232C9.28067 8.232 8.95 8.27467 8.63 8.36C8.33133 8.44533 8.086 8.50933 7.894 8.552C7.894 9.36267 8.39533 10.3227 9.398 11.432ZM21.2818 7.592C22.3911 6.33333 23.8098 5.704 25.5378 5.704C28.0124 5.704 29.5804 6.70667 30.2418 8.712C30.4338 9.30933 30.5298 9.97067 30.5298 10.696C30.5298 12.3173 29.9964 13.9173 28.9298 15.496C27.8844 17.0747 26.6151 18.1413 25.1218 18.696H25.5058C27.0631 18.696 28.6418 18.12 30.2418 16.968C31.2658 16.2427 32.0658 15.496 32.6418 14.728C33.2391 13.9387 33.6871 13.544 33.9858 13.544C34.2844 13.544 34.4338 13.8853 34.4338 14.568C34.4338 15.7627 33.9218 16.968 32.8978 18.184C31.3618 19.9333 29.3991 20.9573 27.0098 21.256C25.2818 21.448 24.0551 21.48 23.3298 21.352C22.6044 21.224 22.0498 21.064 21.6658 20.872C20.8338 20.4453 20.4178 19.8053 20.4178 18.952C20.4178 18.4827 20.5138 18.056 20.7058 17.672C22.3911 17.672 23.6711 17.032 24.5458 15.752C25.4204 14.472 25.8578 12.872 25.8578 10.952C25.8578 10.4827 25.6871 10.0667 25.3458 9.704C25.0044 9.32 24.5458 9.128 23.9698 9.128C23.4151 9.128 22.8071 9.37333 22.1458 9.864C21.4844 10.3547 20.9511 10.9733 20.5458 11.72C20.1618 12.4453 19.8098 13.1707 19.4898 13.896C19.1698 14.6 18.9138 15.496 18.7218 16.584C18.3804 18.5467 17.9858 21.0213 17.5378 24.008C17.1111 27.016 16.8444 28.6267 16.7378 28.84C16.6311 29.0747 16.4711 29.288 16.2578 29.48C16.0444 29.672 15.8204 29.768 15.5858 29.768C15.1591 29.768 14.8071 29.64 14.5298 29.384C13.7618 28.7227 13.3138 28.2107 13.1858 27.848C13.0578 27.5067 12.9938 27.0587 12.9938 26.504C12.9938 24.4133 13.3458 21.48 14.0498 17.704C14.7538 13.928 15.9698 10.0027 17.6978 5.928C17.9538 5.33067 18.4018 5.032 19.0418 5.032C19.7031 5.032 20.3324 5.608 20.9298 6.76C21.1004 7.05867 21.2178 7.336 21.2818 7.592ZM37.6595 15.624L37.8515 19.528C37.8515 20.04 37.5848 20.4987 37.0515 20.904C36.5182 21.3093 35.7928 21.512 34.8755 21.512C34.3422 21.512 33.9688 21.2347 33.7555 20.68C33.5635 20.1253 33.4675 19.3147 33.4675 18.248C33.4675 16.008 33.5742 14.2587 33.7875 13C34.0222 11.72 34.4702 10.4293 35.1315 9.128C34.1502 8.18933 33.6595 7.37867 33.6595 6.696C33.6595 5.26667 34.4275 4.552 35.9635 4.552C36.7528 4.552 37.4462 4.968 38.0435 5.8C38.4702 6.376 38.7795 7.048 38.9715 7.816C39.2702 7.92267 39.6435 7.976 40.0915 7.976C40.7102 7.976 41.4248 7.77333 42.2355 7.368L43.0675 6.952C43.3235 6.824 43.5475 6.76 43.7395 6.76C44.3582 6.76 44.9768 7.66667 45.5955 9.48C45.4035 10.312 45.1902 11.112 44.9555 11.88C44.7422 12.648 44.4862 13.576 44.1875 14.664C43.8888 15.752 43.7288 16.488 43.7075 16.872C43.7075 17.2347 43.8248 17.416 44.0595 17.416C44.3795 17.416 44.7742 17.2133 45.2435 16.808C45.7128 16.4027 46.1822 15.9653 46.6515 15.496C47.1208 15.0053 47.5475 14.5573 47.9315 14.152C48.3368 13.7467 48.6142 13.544 48.7635 13.544C49.0622 13.544 49.2115 13.9067 49.2115 14.632C49.2115 16.104 48.5608 17.5547 47.2595 18.984C45.9795 20.4133 44.5075 21.1173 42.8435 21.096C41.8622 21.096 41.1262 20.7013 40.6355 19.912C40.1448 19.1227 39.8888 18.1627 39.8675 17.032C39.8675 14.792 40.3688 12.6693 41.3715 10.664C40.9022 10.856 40.3688 10.952 39.7715 10.952C39.1955 10.952 38.7795 10.9307 38.5235 10.888C38.3315 11.6987 38.1395 12.52 37.9475 13.352C37.7555 14.1627 37.6595 14.92 37.6595 15.624ZM60.7005 18.28C59.0152 20.264 56.9885 21.256 54.6205 21.256C52.2738 21.256 50.5138 20.6587 49.3405 19.464C48.1672 18.248 47.5912 16.744 47.6125 14.952C47.5912 12.4133 48.3912 10.2267 50.0125 8.392C51.6338 6.55733 53.7565 5.64 56.3805 5.64C57.5752 5.64 58.5352 5.78933 59.2605 6.088C60.5192 6.6 61.1485 7.08 61.1485 7.528C61.1485 7.86933 60.2632 8.05067 58.4925 8.072C56.7432 8.072 55.2712 8.68 54.0765 9.896C52.9032 11.0907 52.3165 12.6053 52.3165 14.44C52.3165 15.4 52.5938 16.2107 53.1485 16.872C53.7245 17.512 54.5245 17.832 55.5485 17.832C56.5938 17.832 57.4578 17.6187 58.1405 17.192C56.6258 16.168 55.8685 14.6853 55.8685 12.744C55.8472 11.72 56.2098 10.792 56.9565 9.96C57.7245 9.10667 58.6952 8.68 59.8685 8.68C61.0632 8.65867 61.9165 8.97867 62.4285 9.64C62.9405 10.3013 63.1965 11.1547 63.1965 12.2C63.1965 13.224 62.9512 14.312 62.4605 15.464H62.6525C63.5912 15.4427 64.4018 15.112 65.0845 14.472C65.3405 14.216 65.5538 13.992 65.7245 13.8C65.9165 13.608 66.1085 13.512 66.3005 13.512C66.5992 13.512 66.7485 13.864 66.7485 14.568C66.7485 15.8693 66.3645 16.8507 65.5965 17.512C64.8285 18.152 63.9752 18.472 63.0365 18.472C62.1192 18.472 61.3405 18.408 60.7005 18.28ZM60.4125 14.568C60.7752 13.8 60.9565 13.0533 60.9565 12.328C60.9565 11.6027 60.7218 11.24 60.2525 11.24C60.0605 11.24 59.9005 11.3787 59.7725 11.656C59.6445 11.9333 59.5805 12.2 59.5805 12.456C59.5805 13.3093 59.8578 14.0133 60.4125 14.568ZM75.2595 7.496C75.2595 6.06667 76.3688 5.352 78.5875 5.352C79.1422 5.352 79.4835 5.53333 79.6115 5.896C79.7608 6.25867 79.8355 6.81333 79.8355 7.56C79.8355 8.60533 79.6008 10.2267 79.1315 12.424C78.6622 14.6213 78.4382 16.104 78.4595 16.872C78.4595 17.2347 78.5768 17.416 78.8115 17.416C79.1315 17.416 79.5262 17.2133 79.9955 16.808C80.4648 16.4027 80.9342 15.9653 81.4035 15.496C81.8728 15.0053 82.2995 14.5573 82.6835 14.152C83.0888 13.7467 83.3662 13.544 83.5155 13.544C83.8142 13.544 83.9635 13.9067 83.9635 14.632C83.9635 16.1253 83.2275 17.5653 81.7555 18.952C79.2808 20.4027 77.7128 21.128 77.0515 21.128C76.9875 21.128 76.9342 21.1173 76.8915 21.096C76.0808 21.096 75.5048 20.8293 75.1635 20.296C74.8435 19.7627 74.6408 19.0907 74.5555 18.28C74.1288 19.0693 73.5422 19.752 72.7955 20.328C72.0488 20.8827 71.1955 21.16 70.2355 21.16C68.5502 21.16 67.2488 20.84 66.3315 20.2C65.4355 19.56 64.9875 18.6107 64.9875 17.352C64.9875 16.7973 65.0622 16.2853 65.2115 15.816C65.3822 15.3467 65.6488 14.7707 66.0115 14.088L66.9395 6.216C67.6008 5.704 68.5502 5.448 69.7875 5.448C70.7688 5.448 71.3235 6.088 71.4515 7.368C71.5582 8.41333 71.5048 9.352 71.2915 10.184C71.0995 10.9947 70.8328 12.0293 70.4915 13.288C70.1502 14.5253 69.9795 15.624 69.9795 16.584C69.9795 17.352 70.4595 17.736 71.4195 17.736C72.4648 17.736 73.3715 16.8187 74.1395 14.984C74.7368 13.576 75.1422 12.008 75.3555 10.28C75.3342 10.1093 75.3128 9.896 75.2915 9.64C75.2915 9.36267 75.2808 9.096 75.2595 8.84C75.2595 8.584 75.2595 8.328 75.2595 8.072V7.496ZM83.938 19.272C83.7033 18.696 83.5327 18.0347 83.426 17.288C83.3193 16.52 83.266 15.4533 83.266 14.088C83.266 12.7227 83.522 10.8773 84.034 8.552H82.594C82.338 8.552 82.21 8.44533 82.21 8.232C82.21 7.72 82.2527 7.304 82.338 6.984C82.4447 6.64267 82.6793 6.25867 83.042 5.832H83.81C84.1087 5.832 84.4287 5.82133 84.77 5.8C85.794 2.51467 86.8393 0.872 87.906 0.872C88.7593 0.893333 89.3567 1.43733 89.698 2.504C89.7833 2.80267 89.8793 3.12267 89.986 3.464L88.674 5.768C90.1673 5.81067 91.106 5.832 91.49 5.832C91.8953 5.832 92.1087 5.87467 92.13 5.96C92.1727 6.024 92.194 6.13067 92.194 6.28C92.194 6.664 92.098 7.144 91.906 7.72C91.7353 8.296 91.5327 8.57333 91.298 8.552L88.098 8.392C87.65 10.9947 87.426 13.1493 87.426 14.856C87.426 16.5627 87.6713 17.416 88.162 17.416C88.5673 17.416 89.3033 17.0853 90.37 16.424C91.4367 15.7413 92.2047 15.0907 92.674 14.472C93.1433 13.8533 93.5273 13.544 93.826 13.544C94.1247 13.544 94.274 13.9067 94.274 14.632C94.274 15.3573 94.018 16.104 93.506 16.872C92.994 17.6187 92.3433 18.312 91.554 18.952C90.786 19.5707 89.922 20.0827 88.962 20.488C88.0233 20.8933 87.202 21.096 86.498 21.096C85.794 21.096 85.25 20.936 84.866 20.616C84.5033 20.2747 84.194 19.8267 83.938 19.272ZM100.142 5.512C101.572 5.49067 102.638 5.75733 103.342 6.312C104.046 6.84533 104.398 7.624 104.398 8.648C104.398 9.65067 104.089 10.5147 103.47 11.24C102.873 11.944 102.137 12.4453 101.262 12.744C101.881 13.384 102.436 14.0347 102.926 14.696C103.438 15.3573 103.694 16.0507 103.694 16.776C103.694 18.2053 103.129 19.3147 101.998 20.104C100.868 20.872 99.2889 21.256 97.2622 21.256C95.2569 21.256 93.7529 20.8613 92.7502 20.072C91.7476 19.2613 91.2462 18.3547 91.2462 17.352C91.2462 16.328 91.4916 15.4 91.9822 14.568C92.4942 13.736 93.0382 13.32 93.6142 13.32C93.9556 13.32 94.2009 13.448 94.3502 13.704C94.4996 13.9387 94.7769 14.6427 95.1822 15.816C95.3316 16.2427 95.5769 16.648 95.9182 17.032C96.7076 17.9067 97.9556 18.344 99.6622 18.344C99.4062 17.5333 98.9902 16.84 98.4142 16.264C97.8596 15.6667 97.3049 15.0907 96.7502 14.536C96.1956 13.9813 95.7049 13.3947 95.2782 12.776C94.8516 12.136 94.6382 11.3893 94.6382 10.536C94.6382 9 95.2142 7.752 96.3662 6.792C97.4542 5.93867 98.7129 5.512 100.142 5.512ZM100.014 11.432C100.868 10.5147 101.294 9.77867 101.294 9.224C101.294 8.968 101.198 8.744 101.006 8.552C100.836 8.33867 100.58 8.232 100.238 8.232C99.8969 8.232 99.5662 8.27467 99.2462 8.36C98.9476 8.44533 98.7022 8.50933 98.5102 8.552C98.5102 9.36267 99.0116 10.3227 100.014 11.432Z" fill="#27AE60"/>
</svg>
