<svg width="332" height="92" viewBox="0 0 332 92" fill="none" xmlns="http://www.w3.org/2000/svg">
<path d="M59.4702 2H15.6834C8.12626 2 2 8.12626 2 15.6834V59.4702C2 76.0959 15.4778 89.5737 32.1034 89.5737H75.8903C83.4474 89.5737 89.5737 83.4474 89.5737 75.8903V32.1034C89.5737 15.4778 76.0959 2 59.4702 2Z" fill="url(#paint0_linear_249_166)"/>
<path d="M30.8657 27.4803L45.364 18.8528C46.1749 20.2799 46.6938 21.9017 46.8884 23.5559C47.083 25.21 46.9533 26.8965 46.5317 28.5183C46.11 30.14 45.364 31.6644 44.3261 32.9943C43.3206 34.3241 42.0557 35.4593 40.6285 36.2702L26.1627 44.8655C24.5409 41.9463 24.1193 38.5082 24.995 35.2323C25.9032 31.9888 28.0114 29.1994 30.8657 27.4803Z" fill="white"/>
<path d="M28.3047 49.1788L48.2845 37.3078C51.1387 35.6212 54.5444 35.1348 57.723 35.9781C60.9016 36.8214 63.5936 38.9296 65.2154 41.8163L45.2356 53.6873C42.3813 55.3739 38.9757 55.8605 35.7971 55.0172C32.6185 54.1739 29.9264 52.0655 28.3047 49.1788Z" fill="white"/>
<path d="M52.7935 54.7579L67.2593 46.1626C68.8811 49.0817 69.3027 52.5199 68.427 55.7958C67.5513 59.0393 65.443 61.8287 62.5887 63.5477L48.0904 72.1753C47.2796 70.7482 46.7606 69.1264 46.566 67.4722C46.3714 65.818 46.5011 64.1315 46.9228 62.5098C47.3444 60.8881 48.0904 59.3636 49.1284 58.0338C50.1014 56.7364 51.3663 55.6012 52.7935 54.7579Z" fill="white"/>
<path d="M119.282 68.337C117.4 68.337 115.407 68.1399 113.306 67.7458C111.204 67.3518 109.321 66.6731 107.657 65.7098C106.956 65.2719 106.453 64.7683 106.146 64.1991C105.884 63.5861 105.774 62.995 105.818 62.4257C105.906 61.8127 106.124 61.2873 106.475 60.8494C106.869 60.4115 107.351 60.1269 107.92 59.9956C108.533 59.8642 109.19 59.9737 109.89 60.324C111.642 61.1559 113.284 61.747 114.816 62.0973C116.349 62.4038 117.859 62.5571 119.348 62.5571C121.45 62.5571 123.004 62.2068 124.011 61.5062C125.062 60.7618 125.588 59.7985 125.588 58.6163C125.588 57.6092 125.237 56.8429 124.537 56.3175C123.88 55.7482 122.873 55.3323 121.516 55.0695L114.948 53.8216C112.233 53.2962 110.153 52.311 108.708 50.866C107.307 49.3773 106.606 47.4725 106.606 45.1518C106.606 43.0501 107.175 41.2329 108.314 39.7004C109.496 38.1678 111.116 36.9856 113.174 36.1536C115.232 35.3217 117.597 34.9057 120.268 34.9057C122.194 34.9057 123.99 35.1246 125.653 35.5625C127.361 35.9566 129.003 36.5915 130.579 37.4672C131.236 37.8175 131.674 38.2773 131.893 38.8465C132.156 39.4158 132.221 40.0069 132.09 40.6199C131.959 41.1891 131.696 41.7146 131.302 42.1962C130.908 42.6341 130.404 42.9187 129.791 43.0501C129.222 43.1376 128.565 43.0063 127.821 42.656C126.463 41.9554 125.15 41.4518 123.88 41.1453C122.654 40.8388 121.472 40.6856 120.333 40.6856C118.188 40.6856 116.59 41.0578 115.539 41.8021C114.532 42.5465 114.028 43.5317 114.028 44.7577C114.028 45.6773 114.335 46.4435 114.948 47.0566C115.561 47.6696 116.502 48.0855 117.772 48.3045L124.34 49.5524C127.186 50.0778 129.332 51.0412 130.776 52.4423C132.265 53.8435 133.01 55.7264 133.01 58.0908C133.01 61.2873 131.762 63.805 129.266 65.6441C126.77 67.4393 123.442 68.337 119.282 68.337Z" fill="#0E2933"/>
<path d="M143.668 80.028C142.355 80.028 141.348 79.6778 140.647 78.9772C139.946 78.2766 139.596 77.2476 139.596 75.8902V39.1749C139.596 37.8175 139.946 36.7885 140.647 36.088C141.348 35.3874 142.333 35.0371 143.603 35.0371C144.916 35.0371 145.923 35.3874 146.624 36.088C147.324 36.7885 147.675 37.8175 147.675 39.1749V44.298L146.952 42.3276C147.609 40.0945 148.945 38.2992 150.959 36.9418C153.017 35.5844 155.403 34.9057 158.118 34.9057C160.92 34.9057 163.372 35.5844 165.474 36.9418C167.62 38.2992 169.284 40.2258 170.466 42.7217C171.648 45.1737 172.239 48.1293 172.239 51.5885C172.239 55.0039 171.648 57.9814 170.466 60.521C169.284 63.0169 167.642 64.9435 165.54 66.3009C163.438 67.6583 160.964 68.337 158.118 68.337C155.447 68.337 153.104 67.6802 151.09 66.3666C149.076 65.0092 147.719 63.2577 147.018 61.1121H147.806V75.8902C147.806 77.2476 147.434 78.2766 146.69 78.9772C145.989 79.6778 144.982 80.028 143.668 80.028ZM155.819 62.0973C157.439 62.0973 158.862 61.7033 160.088 60.9151C161.314 60.1269 162.256 58.9666 162.913 57.434C163.613 55.8577 163.963 53.9092 163.963 51.5885C163.963 48.0855 163.219 45.4802 161.73 43.7725C160.242 42.0211 158.271 41.1453 155.819 41.1453C154.199 41.1453 152.776 41.5394 151.55 42.3276C150.324 43.072 149.361 44.2323 148.66 45.8086C148.003 47.3412 147.675 49.2678 147.675 51.5885C147.675 55.0477 148.419 57.6749 149.908 59.4701C151.397 61.2216 153.367 62.0973 155.819 62.0973Z" fill="#0E2933"/>
<path d="M183.182 68.2056C181.825 68.2056 180.774 67.8553 180.029 67.1547C179.329 66.4103 178.979 65.3595 178.979 64.0021V39.1749C178.979 37.8175 179.329 36.7885 180.029 36.088C180.73 35.3874 181.715 35.0371 182.985 35.0371C184.255 35.0371 185.24 35.3874 185.941 36.088C186.641 36.7885 186.992 37.8175 186.992 39.1749V43.3128H186.335C186.948 40.6856 188.152 38.6933 189.947 37.3359C191.742 35.9785 194.129 35.1684 197.106 34.9057C198.026 34.8181 198.748 35.059 199.274 35.6282C199.843 36.1536 200.171 36.9856 200.259 38.124C200.347 39.2187 200.084 40.1163 199.471 40.8169C198.902 41.4737 198.026 41.8678 196.844 41.9992L195.399 42.1305C192.728 42.3933 190.713 43.2252 189.356 44.6264C187.999 45.9838 187.32 47.9104 187.32 50.4062V64.0021C187.32 65.3595 186.97 66.4103 186.269 67.1547C185.569 67.8553 184.54 68.2056 183.182 68.2056Z" fill="#0E2933"/>
<path d="M218.833 68.337C215.505 68.337 212.615 67.6583 210.163 66.3009C207.711 64.9435 205.806 63.0169 204.449 60.521C203.091 57.9814 202.413 55.0039 202.413 51.5885C202.413 49.0051 202.785 46.7063 203.529 44.6921C204.317 42.6341 205.434 40.8826 206.879 39.4376C208.324 37.9489 210.053 36.8323 212.068 36.088C214.082 35.2998 216.337 34.9057 218.833 34.9057C222.16 34.9057 225.05 35.5844 227.502 36.9418C229.955 38.2992 231.859 40.2258 233.217 42.7217C234.574 45.2175 235.253 48.1731 235.253 51.5885C235.253 54.1719 234.859 56.4926 234.07 58.5506C233.326 60.6086 232.231 62.3819 230.786 63.8707C229.341 65.3157 227.612 66.4322 225.598 67.2204C223.584 67.9648 221.328 68.337 218.833 68.337ZM218.833 62.0973C220.453 62.0973 221.876 61.7033 223.102 60.9151C224.328 60.1269 225.269 58.9666 225.926 57.434C226.627 55.8577 226.977 53.9092 226.977 51.5885C226.977 48.0855 226.233 45.4802 224.744 43.7725C223.255 42.0211 221.285 41.1453 218.833 41.1453C217.213 41.1453 215.789 41.5394 214.563 42.3276C213.337 43.072 212.374 44.2323 211.674 45.8086C211.017 47.3412 210.688 49.2678 210.688 51.5885C210.688 55.0477 211.433 57.6749 212.921 59.4701C214.41 61.2216 216.381 62.0973 218.833 62.0973Z" fill="#0E2933"/>
<path d="M253.654 68.337C250.983 68.337 248.772 67.8553 247.021 66.892C245.269 65.8849 243.956 64.3961 243.08 62.4257C242.248 60.4553 241.832 58.0033 241.832 55.0695V39.1749C241.832 37.7737 242.182 36.7448 242.883 36.088C243.584 35.3874 244.591 35.0371 245.904 35.0371C247.218 35.0371 248.225 35.3874 248.926 36.088C249.67 36.7448 250.042 37.7737 250.042 39.1749V55.2009C250.042 57.4778 250.502 59.1636 251.421 60.2583C252.341 61.353 253.808 61.9003 255.822 61.9003C258.011 61.9003 259.807 61.1559 261.208 59.6672C262.609 58.1346 263.309 56.1204 263.309 53.6246V39.1749C263.309 37.7737 263.66 36.7448 264.36 36.088C265.061 35.3874 266.068 35.0371 267.382 35.0371C268.695 35.0371 269.702 35.3874 270.403 36.088C271.147 36.7448 271.519 37.7737 271.519 39.1749V64.0021C271.519 66.8044 270.184 68.2056 267.513 68.2056C266.243 68.2056 265.258 67.8553 264.557 67.1547C263.857 66.4103 263.507 65.3595 263.507 64.0021V59.0104L264.426 60.9808C263.507 63.3453 262.105 65.1624 260.223 66.4322C258.383 67.7021 256.194 68.337 253.654 68.337Z" fill="#0E2933"/>
<path d="M294.777 68.337C291.931 68.337 289.544 67.8553 287.618 66.892C285.735 65.9287 284.334 64.5275 283.414 62.6885C282.495 60.8056 282.035 58.4849 282.035 55.7264V41.7365H278.62C277.569 41.7365 276.759 41.4737 276.189 40.9483C275.62 40.3791 275.336 39.6128 275.336 38.6495C275.336 37.6424 275.62 36.8761 276.189 36.3507C276.759 35.8252 277.569 35.5625 278.62 35.5625H282.035V29.5856C282.035 28.2282 282.385 27.1992 283.086 26.4986C283.83 25.798 284.859 25.4478 286.173 25.4478C287.486 25.4478 288.494 25.798 289.194 26.4986C289.895 27.1992 290.245 28.2282 290.245 29.5856V35.5625H297.207C298.258 35.5625 299.068 35.8252 299.637 36.3507C300.207 36.8761 300.491 37.6424 300.491 38.6495C300.491 39.6128 300.207 40.3791 299.637 40.9483C299.068 41.4737 298.258 41.7365 297.207 41.7365H290.245V55.2666C290.245 57.3684 290.705 58.9447 291.624 59.9956C292.544 61.0464 294.033 61.5719 296.091 61.5719C296.835 61.5719 297.492 61.5062 298.061 61.3748C298.63 61.2435 299.134 61.1559 299.572 61.1121C300.097 61.0683 300.535 61.2435 300.885 61.6376C301.236 61.9879 301.411 62.7322 301.411 63.8707C301.411 64.7464 301.257 65.5346 300.951 66.2352C300.688 66.892 300.185 67.3518 299.44 67.6145C298.871 67.7896 298.127 67.9429 297.207 68.0742C296.288 68.2494 295.478 68.337 294.777 68.337Z" fill="#0E2933"/>
<path d="M317.029 68.337C315.146 68.337 313.154 68.1399 311.052 67.7458C308.95 67.3518 307.067 66.6731 305.403 65.7098C304.703 65.2719 304.199 64.7683 303.893 64.1991C303.63 63.5861 303.52 62.995 303.564 62.4257C303.652 61.8127 303.871 61.2873 304.221 60.8494C304.615 60.4115 305.097 60.1269 305.666 59.9956C306.279 59.8642 306.936 59.9737 307.636 60.324C309.388 61.1559 311.03 61.747 312.562 62.0973C314.095 62.4038 315.606 62.5571 317.094 62.5571C319.196 62.5571 320.751 62.2068 321.758 61.5062C322.809 60.7618 323.334 59.7985 323.334 58.6163C323.334 57.6092 322.984 56.8429 322.283 56.3175C321.626 55.7482 320.619 55.3323 319.262 55.0695L312.694 53.8216C309.979 53.2962 307.899 52.311 306.454 50.866C305.053 49.3773 304.352 47.4725 304.352 45.1518C304.352 43.0501 304.922 41.2329 306.06 39.7004C307.242 38.1678 308.862 36.9856 310.92 36.1536C312.978 35.3217 315.343 34.9057 318.014 34.9057C319.941 34.9057 321.736 35.1246 323.4 35.5625C325.107 35.9566 326.749 36.5915 328.326 37.4672C328.983 37.8175 329.42 38.2773 329.639 38.8465C329.902 39.4158 329.968 40.0069 329.836 40.6199C329.705 41.1891 329.442 41.7146 329.048 42.1962C328.654 42.6341 328.151 42.9187 327.538 43.0501C326.968 43.1376 326.312 43.0063 325.567 42.656C324.21 41.9554 322.896 41.4518 321.626 41.1453C320.4 40.8388 319.218 40.6856 318.08 40.6856C315.934 40.6856 314.336 41.0578 313.285 41.8021C312.278 42.5465 311.774 43.5317 311.774 44.7577C311.774 45.6773 312.081 46.4435 312.694 47.0566C313.307 47.6696 314.248 48.0855 315.518 48.3045L322.086 49.5524C324.932 50.0778 327.078 51.0412 328.523 52.4423C330.012 53.8435 330.756 55.7264 330.756 58.0908C330.756 61.2873 329.508 63.805 327.012 65.6441C324.516 67.4393 321.188 68.337 317.029 68.337Z" fill="#0E2933"/>
<defs>
<linearGradient id="paint0_linear_249_166" x1="1.99022" y1="45.7876" x2="89.5874" y2="45.7874" gradientUnits="userSpaceOnUse">
<stop offset="0.00184478" stop-color="#00D95B"/>
<stop offset="1" stop-color="#61C91E"/>
</linearGradient>
</defs>
</svg>
