<svg width="20" height="20" viewBox="0 0 20 20" fill="none" xmlns="http://www.w3.org/2000/svg">
<path d="M9.13589 1.48359C9.52162 0.821323 10.4784 0.821321 10.8641 1.48359L13.3343 5.72466C13.4756 5.96726 13.7124 6.13929 13.9868 6.19871L18.7836 7.23745C19.5327 7.39965 19.8283 8.30958 19.3177 8.88109L16.0475 12.541C15.8604 12.7503 15.77 13.0287 15.7983 13.308L16.2927 18.191C16.3699 18.9535 15.5959 19.5159 14.8945 19.2069L10.4032 17.2277C10.1463 17.1145 9.85366 17.1145 9.59675 17.2277L5.10548 19.2069C4.40414 19.5159 3.63011 18.9535 3.70731 18.191L4.20172 13.308C4.23 13.0287 4.13956 12.7503 3.9525 12.541L0.682331 8.88109C0.171676 8.30958 0.467328 7.39965 1.21638 7.23745L6.01321 6.19871C6.28761 6.13929 6.52438 5.96726 6.66569 5.72466L9.13589 1.48359Z" fill="#00C553"/>
</svg>
